<svg id="Group_1115" data-name="Group 1115" xmlns="http://www.w3.org/2000/svg" width="554.889" height="242.807" viewBox="0 0 554.889 242.807">
  <g id="Ellipse_35" data-name="Ellipse 35" transform="translate(162.125 12.348)" opacity="0.238">
    <circle id="Ellipse_38" data-name="Ellipse 38" cx="115.229" cy="115.229" r="115.229" fill="#fff"/>
    <circle id="Ellipse_39" data-name="Ellipse 39" cx="114.858" cy="114.858" r="114.858" transform="translate(0.372 0.372)" fill="none"/>
  </g>
  <g id="Group_585" data-name="Group 585" transform="translate(13.707)">
    <path id="Path_290" data-name="Path 290" d="M833.046,240l-2.678-.455c.38-2.224.724-4.473,1.028-6.675l2.7.368C833.783,235.471,833.431,237.748,833.046,240Zm1.974-14.927-2.708-.248c.207-2.277.366-4.538.476-6.727l2.716.136C835.392,220.459,835.23,222.759,835.02,225.074Zm-510.314-5.447q-.891-3.3-1.709-6.612l2.638-.65q.812,3.286,1.7,6.552Zm508.275-9.608c-.008-2.254-.072-4.519-.185-6.729l2.716-.141c.116,2.255.18,4.562.189,6.859Zm-214.1-4.2-.237-2.708a27.268,27.268,0,0,0,6.316-1.334l.865,2.578A30.073,30.073,0,0,1,618.877,205.818Zm-297.733-.785q-.722-3.344-1.361-6.7l2.671-.507q.632,3.322,1.349,6.627Zm289.2-.008a40.523,40.523,0,0,1-6.6-2.416l1.149-2.465a37.514,37.514,0,0,0,6.151,2.255Zm23.1-4.339-1.453-2.3a43.642,43.642,0,0,0,5.273-3.945l1.782,2.052A46.315,46.315,0,0,1,633.445,200.685Zm-36.945-2.3a57.426,57.426,0,0,1-5.437-4.338l1.817-2.023a55.129,55.129,0,0,0,5.182,4.137Zm235.632-3.136c-.255-2.233-.573-4.471-.949-6.654l2.68-.46c.382,2.233.708,4.522.969,6.8ZM644.937,190.6l-2.041-1.8c1.347-1.535,2.716-3.229,4.067-5.04l.1-.144,2.223,1.567-.123.176C647.75,187.254,646.334,189.007,644.937,190.6Zm-326.555-.341c-.352-2.257-.675-4.536-.958-6.769l2.7-.342c.28,2.209.6,4.46.946,6.691Zm266.846-2.143q-.77-.877-1.5-1.768c-.947-1-1.98-2.146-3.006-3.328l2.054-1.782c.982,1.132,1.977,2.236,2.994,3.317.528.639,1.008,1.208,1.5,1.77ZM829.553,180.7c-.531-2.189-1.134-4.365-1.785-6.472l2.6-.8c.671,2.16,1.285,4.393,1.829,6.634Zm-175.7-2.348-2.3-1.459c1.19-1.871,2.372-3.808,3.511-5.76l2.347,1.371C656.266,174.485,655.066,176.451,653.858,178.35Zm-78.322-1.738c-1.341-1.762-2.694-3.628-4.025-5.547l2.233-1.551c1.309,1.887,2.64,3.72,3.956,5.452Zm-258.994-1.285c-.2-2.276-.371-4.573-.5-6.825l2.716-.151c.124,2.222.29,4.488.49,6.734Zm508.574-8.7c-.813-2.077-1.7-4.154-2.637-6.168l2.468-1.144c.962,2.064,1.87,4.194,2.7,6.321Zm-163.7-1.3-2.4-1.272c1.039-1.956,2.072-3.981,3.073-6.017l2.439,1.2C663.513,161.295,662.469,163.345,661.418,165.325Zm-94.443-1.112c-1.169-1.846-2.368-3.805-3.572-5.827L565.74,157c1.189,2,2.377,3.94,3.532,5.76ZM315.749,160.3q-.022-1.459-.022-2.917,0-1.964.04-3.93l2.72.056q-.04,1.94-.04,3.874,0,1.437.021,2.876Zm503.084-7.019a63.815,63.815,0,0,0-3.551-5.626l2.22-1.569a66.861,66.861,0,0,1,3.7,5.864Zm-150.813-1.462L665.54,150.7q1.387-3.076,2.71-6.2l2.5,1.059Q669.418,148.71,668.019,151.816Zm-108.706-.532q-.9-1.607-1.779-3.216c-.52-.818-1.073-1.716-1.617-2.618l2.328-1.4q.8,1.328,1.631,2.643c.626,1.14,1.216,2.2,1.811,3.268Zm-240.476-5.866-2.714-.179q.111-1.689.256-3.378c0-1.043.012-2.2.049-3.361l2.717.083q-.051,1.7-.051,3.394C318.995,143.2,318.91,144.31,318.838,145.418Zm491.429-3.967a54.117,54.117,0,0,0-4.782-4.588l1.535-1.814-1.2-1.779a23.371,23.371,0,0,0,4.772-4.264l2.076,1.755a25.994,25.994,0,0,1-4.9,4.471,57.285,57.285,0,0,1,4.5,4.373Zm-17.438-.575-.316-2.7a29.023,29.023,0,0,0,6.3-1.48l.916,2.559A31.607,31.607,0,0,1,792.828,140.876Zm-8.6-.44a15.077,15.077,0,0,1-5.839-2.842,8.473,8.473,0,0,1-.706-.575l1.82-2.021a6.309,6.309,0,0,0,.545.439A12.429,12.429,0,0,0,784.9,137.8ZM551.8,138.361l-3.327-5.93,2.371-1.333,3.325,5.927Zm122.07-.3-2.475-1.125q1.389-3.061,2.788-6.19l2.482,1.11Q675.263,134.988,673.874,138.059Zm125.52-5.639-.267-.1a44.106,44.106,0,0,0-6.112-2.443l.8-2.6a46.663,46.663,0,0,1,6.5,2.594l-.592,1.216ZM319.7,130.55l-2.7-.294c.248-2.3.576-4.59.974-6.819l2.677.478C320.261,126.083,319.942,128.315,319.7,130.55Zm460.066-.343-1.6-2.2a9.522,9.522,0,0,1,1.421-.849,13.6,13.6,0,0,1,5.791-1.261l.043,2.718a10.931,10.931,0,0,0-4.643.988A6.665,6.665,0,0,0,779.767,130.207ZM544.423,125.4c-1.244-2.08-2.411-3.947-3.573-5.711l2.271-1.5c1.184,1.8,2.371,3.7,3.636,5.811Zm135.587-.986-2.477-1.12q1.394-3.092,2.833-6.2l2.467,1.146Q681.4,121.329,680.01,124.412Zm137.031-1-2.53-1a28.315,28.315,0,0,0,1.658-6.255l2.69.4A31.218,31.218,0,0,1,817.041,123.407Zm-494.634-7.328-2.624-.717c.611-2.237,1.313-4.451,2.084-6.582l2.558.925C323.678,111.767,323,113.912,322.408,116.079Zm213.785-2.968q-.424-.555-.862-1.109c-1.193-1.493-2.308-2.812-3.41-4.029l2.016-1.826c1.139,1.259,2.292,2.62,3.524,4.164.3.385.6.765.892,1.147ZM686.327,110.9l-2.441-1.2c1.007-2.045,2.029-4.08,3.084-6.1l2.411,1.259Q687.815,107.862,686.327,110.9Zm-236.54-2.468-.5,0,.032-2.718.472,0a35.589,35.589,0,0,0,5.447-.433l.607-.1.447,2.681-.64.1A38.161,38.161,0,0,1,449.787,108.437Zm366.651-.123a44.2,44.2,0,0,0-.972-6.517l2.652-.6a46.471,46.471,0,0,1,1.031,6.92Zm-375.544-1.053a35.537,35.537,0,0,1-6.581-2.535l1.22-2.43a32.793,32.793,0,0,0,6.077,2.342Zm23.492-1.315-.777-2.607c1.907-.567,3.935-1.239,6.386-2.112l.913,2.561C468.411,104.679,466.338,105.364,464.386,105.946ZM526.2,102.46a36.358,36.358,0,0,0-5.4-3.69l1.315-2.381a38.8,38.8,0,0,1,5.808,3.967Zm-198.656-.136-2.446-1.189c.241-.493.485-.985.737-1.474a48.852,48.852,0,0,1,2.363-4.683l2.358,1.355a47.033,47.033,0,0,0-2.267,4.5C328.007,101.375,327.771,101.847,327.539,102.324Zm151.047-1.363-.946-2.549c1.9-.7,4.146-1.528,6.441-2.3l.868,2.577C482.689,99.452,480.463,100.266,478.586,100.962Zm-51.36-.743a61.392,61.392,0,0,1-5.234-4.571l1.9-1.948a58.462,58.462,0,0,0,5,4.366Zm-80.355-.845-.52-2.668a14.255,14.255,0,0,0,1.668-.435,6.787,6.787,0,0,0,3.169-2.382l2.235,1.55a9.515,9.515,0,0,1-4.49,3.392A16.878,16.878,0,0,1,346.871,99.374Zm-8.763-.84a20.584,20.584,0,0,1-6.1-3.9l1.821-2.02a17.884,17.884,0,0,0,5.285,3.4Zm355.158-.779L690.907,96.4c1.164-2.029,2.351-4.007,3.529-5.875l2.3,1.451C695.579,93.814,694.411,95.757,693.267,97.755Zm-200.61-1.337-.641-2.642a57.718,57.718,0,0,1,6.839-1.258l.321,2.7A54.863,54.863,0,0,0,492.656,96.418Zm20.909-.469a27.478,27.478,0,0,0-4.254-.655c-.82-.116-1.546-.2-2.268-.257l.22-2.711q1.171.1,2.345.267a29.351,29.351,0,0,1,4.583.711ZM813.1,94.23a50.715,50.715,0,0,0-2.867-5.962l2.366-1.338a53.049,53.049,0,0,1,3.024,6.284ZM335.135,89.973l-2-1.844a23.541,23.541,0,0,1,5.574-4.538l1.346,2.364A20.828,20.828,0,0,0,335.135,89.973Zm81.207-.372c-1.342-1.556-2.728-3.237-4.359-5.289l2.129-1.692c1.609,2.023,2.972,3.677,4.29,5.206Zm-89.764-1.508a41.168,41.168,0,0,1-3.248-6.234l2.509-1.048a38.288,38.288,0,0,0,3.031,5.818Zm24.729-.5a6.507,6.507,0,0,0-4.395-3.221l.53-2.667a9.218,9.218,0,0,1,6.234,4.556Zm349.926-2.334-2.215-1.578c1.364-1.916,2.759-3.763,4.147-5.489l2.12,1.7C703.93,81.585,702.567,83.389,701.233,85.263ZM805.747,81.71c-1.352-1.732-2.815-3.431-4.347-5.05l1.976-1.87c1.591,1.681,3.109,3.446,4.514,5.247Zm-398.8-3.837-.957-1.224c-1.052-1.319-2.145-2.685-3.268-4.07l2.112-1.711c1.128,1.39,2.224,2.76,3.289,4.094l.97,1.24ZM710.58,73.852l-1.963-1.881c1.633-1.7,3.313-3.314,4.995-4.785l1.789,2.049C713.781,70.651,712.16,72.2,710.58,73.852Zm-389.623-.082a32.916,32.916,0,0,1-.563-6.085c0-.324,0-.646.015-.969l2.717.076c-.007.3-.012.6-.013.9a30.089,30.089,0,0,0,.516,5.577Zm474.625-2.608c-1.692-1.432-3.469-2.8-5.282-4.076l1.56-2.226c1.88,1.319,3.725,2.742,5.478,4.226ZM397.531,66.329c-1.556-1.815-3.023-3.466-4.484-5.047l2-1.846c1.484,1.606,2.972,3.281,4.551,5.122ZM721.721,64.37l-1.511-2.261a55.147,55.147,0,0,1,6.019-3.5l1.215,2.433A52.393,52.393,0,0,0,721.721,64.37Zm61.784-1.52c-1.956-1.072-3.97-2.059-5.991-2.933l1.08-2.5c2.1.908,4.192,1.933,6.22,3.046ZM324.295,59.071l-2.621-.727a36.041,36.041,0,0,1,2.542-6.582l2.427,1.226A33.232,33.232,0,0,0,324.295,59.071Zm410.53-1.158-.963-2.543a53.278,53.278,0,0,1,6.67-2.028l.62,2.648A50.25,50.25,0,0,0,734.824,57.914Zm35.181-.731a62.859,62.859,0,0,0-6.467-1.56l.5-2.673a65.494,65.494,0,0,1,6.747,1.627ZM387.4,55.513c-1.672-1.6-3.351-3.107-4.993-4.48l1.745-2.085c1.689,1.413,3.413,2.961,5.128,4.6ZM749,54.792l-.2-2.711a57.868,57.868,0,0,1,6.957-.094l-.128,2.716A54.577,54.577,0,0,0,749,54.792ZM330.985,46.513l-2.05-1.787a31.206,31.206,0,0,1,5.231-4.788l1.591,2.2A28.443,28.443,0,0,0,330.985,46.513ZM376.01,46.2a62.257,62.257,0,0,0-5.7-3.433l1.274-2.4a65.506,65.506,0,0,1,5.945,3.583Zm-12.966-6.614a44.809,44.809,0,0,0-6.366-1.694l.5-2.672a47.535,47.535,0,0,1,6.752,1.8ZM342.615,38.6l-.869-2.577a28.376,28.376,0,0,1,6.978-1.4l.2,2.712A25.6,25.6,0,0,0,342.615,38.6Z" transform="translate(-315.727 -34.62)" fill="#fff"/>
  </g>
  <g id="Group_586" data-name="Group 586" transform="translate(186.987 94.806)">
    <path id="Path_291" data-name="Path 291" d="M622.332,275.059H528.854V157.62a6.392,6.392,0,0,1,6.392-6.393H704.623a6.392,6.392,0,0,1,6.392,6.393V275.059Z" transform="translate(-528.854 -151.227)" fill="#404042" fill-rule="evenodd"/>
  </g>
  <g id="Group_587" data-name="Group 587" transform="translate(163.02 218.638)">
    <path id="Path_292" data-name="Path 292" d="M729.471,303.535a9.5,9.5,0,0,1-9.406,9.587H508.78a9.5,9.5,0,0,1-9.405-9.587Z" transform="translate(-499.375 -303.535)" fill="#404042" fill-rule="evenodd"/>
  </g>
  <g id="Group_588" data-name="Group 588" transform="translate(193.74 102.458)">
    <path id="Path_293" data-name="Path 293" d="M537.159,269.168V160.639H705.816V269.168Z" transform="translate(-537.159 -160.639)" fill="#d7e6f6" fill-rule="evenodd"/>
  </g>
  <g id="Group_589" data-name="Group 589" transform="translate(261.723 218.638)">
    <path id="Path_294" data-name="Path 294" d="M653.469,303.535a3.272,3.272,0,0,1-3.342,3.194H624.115a3.27,3.27,0,0,1-3.34-3.194Z" transform="translate(-620.775 -303.535)" fill="#5f6771" fill-rule="evenodd"/>
  </g>
  <g id="Group_590" data-name="Group 590" transform="translate(116.86 141.151)">
    <rect id="Rectangle_241" data-name="Rectangle 241" width="8.183" height="62.813" fill="#529ed6"/>
  </g>
  <g id="Group_591" data-name="Group 591" transform="translate(131.361 164.241)">
    <rect id="Rectangle_242" data-name="Rectangle 242" width="8.184" height="39.724" fill="#404042"/>
  </g>
  <g id="Group_592" data-name="Group 592" transform="translate(145.864 175.259)">
    <rect id="Rectangle_243" data-name="Rectangle 243" width="8.183" height="28.705" fill="#fff"/>
  </g>
  <g id="Group_593" data-name="Group 593" transform="translate(160.366 157.032)">
    <rect id="Rectangle_244" data-name="Rectangle 244" width="8.183" height="46.932" fill="#d7e6f6"/>
  </g>
  <g id="Group_594" data-name="Group 594" transform="translate(387.101 154.336)">
    <rect id="Rectangle_245" data-name="Rectangle 245" width="46.104" height="7.818" fill="#529ed6"/>
  </g>
  <g id="Group_595" data-name="Group 595" transform="translate(387.101 168.192)">
    <rect id="Rectangle_246" data-name="Rectangle 246" width="61.831" height="7.818" fill="#404042"/>
  </g>
  <g id="Group_596" data-name="Group 596" transform="translate(387.103 182.048)">
    <rect id="Rectangle_247" data-name="Rectangle 247" width="39.094" height="7.82" fill="#d7e6f6"/>
  </g>
  <g id="Group_597" data-name="Group 597" transform="translate(387.101 195.902)">
    <rect id="Rectangle_248" data-name="Rectangle 248" width="44.843" height="7.818" fill="#fff"/>
  </g>
  <g id="Group_600" data-name="Group 600" transform="translate(501.32 165.108)">
    <g id="Group_598" data-name="Group 598" transform="translate(7.579)">
      <path id="Path_295" data-name="Path 295" d="M949.514,283.623a23,23,0,1,1,21.2-24.662A23,23,0,0,1,949.514,283.623Z" transform="translate(-924.79 -237.695)" fill="#529ed6"/>
    </g>
    <g id="Group_599" data-name="Group 599" transform="translate(0 9.661)">
      <path id="Path_296" data-name="Path 296" d="M931.962,249.577,915.468,255.5l11.315,13.073" transform="translate(-915.468 -249.577)" fill="#529ed6"/>
    </g>
  </g>
  <g id="Group_605" data-name="Group 605" transform="translate(523.048 175.015)">
    <g id="Group_601" data-name="Group 601" transform="translate(0 18.564)">
      <path id="Path_297" data-name="Path 297" d="M950.8,274.832c-3.229,0-6.611-.678-8.594-2.119,0,.024-.015.049-.015.069v2.05c0,1.892,3.851,3.421,8.608,3.421s8.606-1.529,8.606-3.421v-2.05c0-.02-.012-.045-.012-.069C957.415,274.154,954.03,274.832,950.8,274.832Z" transform="translate(-942.192 -272.713)" fill="#fafbef"/>
    </g>
    <g id="Group_602" data-name="Group 602" transform="translate(0 13.435)">
      <path id="Path_298" data-name="Path 298" d="M950.8,268.524c-3.229,0-6.611-.678-8.594-2.12,0,.024-.015.047-.015.07v2.05c0,1.892,3.851,3.421,8.608,3.421s8.606-1.529,8.606-3.421v-2.05c0-.023-.012-.046-.012-.07C957.415,267.845,954.03,268.524,950.8,268.524Z" transform="translate(-942.192 -266.404)" fill="#fafbef"/>
    </g>
    <g id="Group_603" data-name="Group 603" transform="translate(0 8.463)">
      <path id="Path_299" data-name="Path 299" d="M942.192,260.289v1.964c0,1.891,3.851,3.419,8.608,3.419s8.606-1.528,8.606-3.419v-1.964c-1.973,1.45-5.364,2.137-8.606,2.137S944.169,261.739,942.192,260.289Z" transform="translate(-942.192 -260.289)" fill="#fafbef"/>
    </g>
    <g id="Group_604" data-name="Group 604">
      <path id="Path_300" data-name="Path 300" d="M950.8,249.88c-4.757,0-8.608,1.529-8.608,3.42v2.05c0,1.888,3.851,3.42,8.608,3.42s8.606-1.532,8.606-3.42V253.3C959.406,251.409,955.555,249.88,950.8,249.88Z" transform="translate(-942.192 -249.88)" fill="#fafbef"/>
    </g>
  </g>
  <g id="Group_606" data-name="Group 606" transform="translate(0 144.215)">
    <path id="Path_301" data-name="Path 301" d="M321.718,260.353a24.2,24.2,0,1,0-22.811-25.5A24.2,24.2,0,0,0,321.718,260.353Z" transform="translate(-298.868 -211.997)" fill="#529ed6"/>
  </g>
  <g id="Group_607" data-name="Group 607" transform="translate(38.729 154.09)">
    <path id="Path_302" data-name="Path 302" d="M346.5,224.143l17.475,5.889-11.633,13.99" transform="translate(-346.502 -224.143)" fill="#529ed6"/>
  </g>
  <g id="Group_612" data-name="Group 612" transform="translate(8.911 157.493)">
    <g id="Group_608" data-name="Group 608">
      <path id="Path_303" data-name="Path 303" d="M340.4,233.788a5.459,5.459,0,0,0-5.457-5.459H315.287a5.46,5.46,0,0,0-5.459,5.459v10.918a5.459,5.459,0,0,0,5.459,5.459h19.652a5.457,5.457,0,0,0,5.457-5.459Zm-25.165-3.275h19.652a3.271,3.271,0,0,1,3.074,2.186h-25.8A3.274,3.274,0,0,1,315.231,230.513Zm22.982,14.193a3.324,3.324,0,0,1-3.33,3.274H315.231a3.232,3.232,0,0,1-3.219-3.274v-7.643h26.2Z" transform="translate(-309.828 -228.329)" fill="#fafbef"/>
    </g>
    <g id="Group_609" data-name="Group 609" transform="translate(4.313 10.917)">
      <path id="Path_304" data-name="Path 304" d="M316.222,243.942h8.734a1.092,1.092,0,1,0,0-2.185h-8.734a1.092,1.092,0,0,0,0,2.185Z" transform="translate(-315.133 -241.757)" fill="#fafbef"/>
    </g>
    <g id="Group_610" data-name="Group 610" transform="translate(21.779 10.917)">
      <path id="Path_305" data-name="Path 305" d="M337.707,243.942h2.184a1.092,1.092,0,0,0,0-2.185h-2.184a1.092,1.092,0,0,0,0,2.185Z" transform="translate(-336.615 -241.757)" fill="#fafbef"/>
    </g>
    <g id="Group_611" data-name="Group 611" transform="translate(4.313 15.286)">
      <path id="Path_306" data-name="Path 306" d="M316.222,249.313h4.369a1.091,1.091,0,0,0,0-2.183h-4.369a1.092,1.092,0,0,0,0,2.183Z" transform="translate(-315.133 -247.13)" fill="#fafbef"/>
    </g>
  </g>
</svg>
