<svg width="367" height="176" viewBox="0 0 367 176" fill="none" xmlns="http://www.w3.org/2000/svg">
<g clip-path="url(#clip0)">
<path d="M87.488 100.299C87.7124 98.4584 87.5581 96.5912 87.0344 94.8124C86.5108 93.0336 85.6289 91.3807 84.443 89.9552C83.2571 88.5297 81.7922 87.3618 80.1384 86.5232C78.4846 85.6846 76.6767 85.1931 74.826 85.0789C72.9752 84.9646 71.1206 85.23 69.3762 85.8588C67.6318 86.4876 66.0344 87.4665 64.6821 88.7353C63.3299 90.0041 62.2514 91.536 61.513 93.2369C60.7745 94.9378 60.3917 96.7717 60.388 98.626C60.3914 99.1855 60.4292 99.7442 60.501 100.299H87.488Z" fill="white"/>
<path d="M56.443 100.299C58.6439 97.3589 59.983 93.8643 60.3103 90.2063C60.6376 86.5483 59.9402 82.8714 58.2963 79.5873C56.6524 76.3032 54.1268 73.5415 51.0022 71.6114C47.8777 69.6813 44.2776 68.659 40.605 68.659C36.9324 68.659 33.3323 69.6813 30.2078 71.6114C27.0832 73.5415 24.5576 76.3032 22.9137 79.5873C21.2697 82.8714 20.5724 86.5483 20.8997 90.2063C21.227 93.8643 22.5661 97.3589 24.767 100.299H56.443Z" fill="white"/>
<path d="M39.502 100.299C39.502 100.285 39.502 100.271 39.502 100.255C39.502 95.2996 37.5334 90.5471 34.0294 87.0431C30.5254 83.5391 25.7729 81.5705 20.8175 81.5705C15.862 81.5705 11.1096 83.5391 7.60556 87.0431C4.10154 90.5471 2.133 95.2996 2.133 100.255C2.133 100.27 2.133 100.285 2.133 100.299H39.502Z" fill="white"/>
<path d="M49.124 100.3C47.6875 97.9301 45.6643 95.9706 43.2498 94.6107C40.8352 93.2507 38.1107 92.5362 35.3395 92.5362C32.5682 92.5362 29.8438 93.2507 27.4292 94.6107C25.0146 95.9706 22.9915 97.9301 21.555 100.3H49.124Z" fill="white"/>
<path d="M75.527 100.299C75.573 99.749 75.612 99.199 75.612 98.633C75.612 93.4075 73.5362 88.3959 69.8411 84.7009C66.1461 81.0059 61.1346 78.93 55.909 78.93C50.6834 78.93 45.6719 81.0059 41.9769 84.7009C38.2818 88.3959 36.206 93.4075 36.206 98.633C36.206 99.196 36.243 99.749 36.29 100.299H75.527Z" fill="white"/>
<path d="M93.67 22.791C93.67 22.713 93.679 22.639 93.679 22.563C93.679 16.563 89.246 11.693 83.779 11.693C78.312 11.693 73.879 16.559 73.879 22.563C73.879 22.639 73.888 22.713 73.89 22.791H93.67Z" fill="#D7E6F6"/>
<path d="M139.889 22.791C139.627 20.9475 138.708 19.2605 137.302 18.04C135.896 16.8195 134.096 16.1475 132.234 16.1475C130.372 16.1475 128.572 16.8195 127.166 18.04C125.76 19.2605 124.841 20.9475 124.579 22.791H139.889Z" fill="#D7E6F6"/>
<path d="M106.224 22.791H118.924C120.059 21.7217 120.96 20.4291 121.572 18.9945C122.183 17.5599 122.49 16.0143 122.475 14.455C122.475 8.455 118.041 3.58601 112.575 3.58601C107.109 3.58601 102.675 8.452 102.675 14.455C102.659 16.0142 102.966 17.5599 103.577 18.9946C104.187 20.4293 105.089 21.7219 106.224 22.791V22.791Z" fill="#D7E6F6"/>
<path d="M134.033 22.791C132.959 16.862 128.197 12.391 122.479 12.391C116.761 12.391 111.999 16.861 110.925 22.791H134.033Z" fill="#D7E6F6"/>
<path d="M122.144 22.791C121.348 21.2559 120.146 19.969 118.668 19.0708C117.191 18.1726 115.495 17.6975 113.766 17.6975C112.037 17.6975 110.341 18.1726 108.864 19.0708C107.386 19.969 106.184 21.2559 105.388 22.791H122.144Z" fill="#D7E6F6"/>
<path d="M110.73 18.224C109.011 11.642 103.49 6.824 96.943 6.824C89.022 6.824 82.602 13.871 82.602 22.564C82.602 22.638 82.61 22.71 82.612 22.787H111.272C111.272 22.711 111.283 22.638 111.283 22.564C111.284 21.0983 111.098 19.6385 110.729 18.22" fill="#D7E6F6"/>
<path d="M298.517 47.362C298.517 47.249 298.532 47.14 298.532 47.026C298.532 38.174 291.994 30.998 283.932 30.998C275.87 30.998 269.332 38.174 269.332 47.026C269.332 47.14 269.346 47.249 269.348 47.362H298.517Z" fill="white"/>
<path d="M366.677 47.361C365.466 41.744 360.877 37.561 355.391 37.561C349.905 37.561 345.313 41.744 344.101 47.361H366.677Z" fill="white"/>
<path d="M317.033 47.362H335.767C337.442 45.7861 338.771 43.8804 339.673 41.765C340.574 39.6496 341.027 37.3703 341.004 35.071C341.004 26.219 334.466 19.041 326.404 19.041C318.342 19.041 311.804 26.219 311.804 35.071C311.78 37.3697 312.232 39.6485 313.132 41.7638C314.032 43.8792 315.36 45.7853 317.033 47.362V47.362Z" fill="white"/>
<path d="M358.043 47.362C356.46 38.619 349.435 32.027 341.003 32.027C332.571 32.027 325.548 38.618 323.965 47.362H358.043Z" fill="white"/>
<path d="M340.51 47.362C339.336 45.0984 337.563 43.2007 335.384 41.8762C333.205 40.5517 330.704 39.8512 328.154 39.8512C325.605 39.8512 323.104 40.5517 320.925 41.8762C318.746 43.2007 316.973 45.0984 315.799 47.362H340.51Z" fill="white"/>
<path d="M323.677 40.628C321.143 30.928 313.001 23.822 303.345 23.822C291.666 23.822 282.197 34.214 282.197 47.034C282.197 47.145 282.21 47.251 282.212 47.362H324.479C324.479 47.251 324.494 47.145 324.494 47.034C324.496 44.8723 324.222 42.7192 323.678 40.627" fill="white"/>
<g opacity="0.15">
<g opacity="0.15">
<g opacity="0.15">
<path opacity="0.15" d="M289.382 51.348C289.382 51.235 289.397 51.125 289.397 51.012C289.397 42.16 282.86 34.983 274.797 34.983C266.734 34.983 260.197 42.16 260.197 51.012C260.197 51.125 260.209 51.235 260.212 51.348H289.382Z" fill="white"/>
</g>
<g opacity="0.15">
<path opacity="0.15" d="M357.543 51.348C356.33 45.731 351.743 41.548 346.256 41.548C340.769 41.548 336.178 45.732 334.965 51.348H357.543Z" fill="white"/>
</g>
<g opacity="0.15">
<path opacity="0.15" d="M307.895 51.348H326.63C328.304 49.7718 329.634 47.8658 330.535 45.7502C331.436 43.6347 331.889 41.3554 331.866 39.056C331.866 30.204 325.328 23.028 317.266 23.028C309.204 23.028 302.666 30.204 302.666 39.056C302.642 41.3548 303.094 43.6338 303.994 45.7493C304.894 47.8648 306.222 49.7711 307.895 51.348V51.348Z" fill="white"/>
</g>
<g opacity="0.15">
<path opacity="0.15" d="M348.907 51.348C347.322 42.605 340.297 36.012 331.867 36.012C323.437 36.012 316.412 42.604 314.829 51.348H348.907Z" fill="white"/>
</g>
<g opacity="0.15">
<path opacity="0.15" d="M331.375 51.348C330.201 49.0844 328.428 47.1867 326.249 45.8622C324.07 44.5377 321.569 43.8372 319.019 43.8372C316.47 43.8372 313.969 44.5377 311.79 45.8622C309.611 47.1867 307.838 49.0844 306.664 51.348H331.375Z" fill="white"/>
</g>
<g opacity="0.15">
<path opacity="0.15" d="M314.54 44.613C312.008 34.913 303.864 27.807 294.209 27.807C282.53 27.807 273.061 38.2 273.061 51.02C273.061 51.13 273.075 51.236 273.077 51.348H315.342C315.342 51.237 315.357 51.13 315.357 51.02C315.359 48.8579 315.085 46.7044 314.54 44.612" fill="white"/>
</g>
</g>
<g opacity="0.15">
<g opacity="0.15">
<path opacity="0.15" d="M84.533 26.774C84.533 26.697 84.543 26.623 84.543 26.546C84.543 20.546 80.11 15.677 74.643 15.677C69.176 15.677 64.743 20.542 64.743 26.546C64.743 26.622 64.751 26.696 64.754 26.774H84.533Z" fill="white"/>
</g>
<g opacity="0.15">
<path opacity="0.15" d="M130.754 26.775C130.493 24.9307 129.574 23.2428 128.168 22.0216C126.761 20.8004 124.961 20.128 123.099 20.128C121.236 20.128 119.436 20.8004 118.029 22.0216C116.623 23.2428 115.704 24.9307 115.443 26.775H130.754Z" fill="white"/>
</g>
<g opacity="0.15">
<path opacity="0.15" d="M97.085 26.775H109.795C110.93 25.7058 111.831 24.4133 112.442 22.9788C113.053 21.5444 113.36 19.9991 113.345 18.44C113.345 12.44 108.912 7.57 103.445 7.57C97.978 7.57 93.545 12.437 93.545 18.44C93.5278 19.9984 93.8335 21.5435 94.4428 22.978C95.052 24.4125 95.9516 25.7053 97.085 26.775V26.775Z" fill="white"/>
</g>
<g opacity="0.15">
<path opacity="0.15" d="M124.897 26.775C123.824 20.847 119.059 16.375 113.344 16.375C107.629 16.375 102.863 20.847 101.788 26.775H124.897Z" fill="white"/>
</g>
<g opacity="0.15">
<path opacity="0.15" d="M113.007 26.775C112.211 25.2399 111.009 23.9531 109.531 23.0548C108.054 22.1566 106.358 21.6815 104.629 21.6815C102.9 21.6815 101.204 22.1566 99.7266 23.0548C98.2492 23.9531 97.0469 25.2399 96.251 26.775H113.007Z" fill="white"/>
</g>
<g opacity="0.15">
<path opacity="0.15" d="M101.594 22.208C99.875 15.627 94.354 10.808 87.805 10.808C79.886 10.808 73.465 17.855 73.465 26.548C73.465 26.623 73.475 26.697 73.476 26.771H102.137C102.137 26.697 102.147 26.623 102.147 26.548C102.148 25.0824 101.963 23.6226 101.595 22.204" fill="white"/>
</g>
</g>
<g opacity="0.15">
<g opacity="0.15">
<path opacity="0.15" d="M77.353 104.284C77.6018 102.366 77.4386 100.416 76.8744 98.5656C76.3101 96.7152 75.3578 95.0064 74.0808 93.5532C72.8039 92.0999 71.2318 90.9357 69.4693 90.1382C67.7068 89.3406 65.7945 88.9281 63.86 88.9281C61.9254 88.9281 60.0131 89.3406 58.2506 90.1382C56.4882 90.9357 54.916 92.0999 53.6391 93.5532C52.3622 95.0064 51.4098 96.7152 50.8455 98.5656C50.2813 100.416 50.1182 102.366 50.367 104.284H77.353Z" fill="white"/>
</g>
<g opacity="0.15">
<path opacity="0.15" d="M46.307 104.284C48.508 101.344 49.8473 97.8493 50.1747 94.1912C50.5022 90.5332 49.8049 86.8562 48.161 83.572C46.5171 80.2878 43.9915 77.526 40.8669 75.5958C37.7423 73.6657 34.1422 72.6433 30.4695 72.6433C26.7968 72.6433 23.1967 73.6657 20.0721 75.5958C16.9475 77.526 14.4219 80.2878 12.778 83.572C11.1341 86.8562 10.4368 90.5332 10.7643 94.1912C11.0917 97.8493 12.4309 101.344 14.632 104.284H46.307Z" fill="white"/>
</g>
<g opacity="0.15">
<path opacity="0.15" d="M29.366 104.284C29.366 104.269 29.366 104.255 29.366 104.241C29.366 99.2857 27.3975 94.5333 23.8936 91.0294C20.3897 87.5255 15.6373 85.557 10.682 85.557C5.72667 85.557 0.974328 87.5255 -2.5296 91.0294C-6.03353 94.5333 -8.00201 99.2857 -8.00201 104.241C-8.00201 104.255 -8.00201 104.269 -8.00201 104.284H29.366Z" fill="white"/>
</g>
<g opacity="0.15">
<path opacity="0.15" d="M38.987 104.285C37.5505 101.915 35.5273 99.9556 33.1127 98.5957C30.6981 97.2357 27.9737 96.5212 25.2025 96.5212C22.4312 96.5212 19.7068 97.2357 17.2922 98.5957C14.8776 99.9556 12.8544 101.915 11.418 104.285H38.987Z" fill="white"/>
</g>
<g opacity="0.15">
<path opacity="0.15" d="M65.391 104.284C65.437 103.733 65.476 103.184 65.476 102.616C65.476 97.3904 63.4002 92.3789 59.7051 88.6839C56.0101 84.9888 50.9986 82.913 45.773 82.913C40.5474 82.913 35.5359 84.9888 31.8409 88.6839C28.1459 92.3789 26.07 97.3904 26.07 102.616C26.07 103.179 26.108 103.732 26.154 104.284H65.391Z" fill="white"/>
</g>
</g>
</g>
<path d="M252.918 96.487C252.918 109.84 248.959 122.893 241.54 133.996C234.122 145.099 223.578 153.753 211.241 158.863C198.904 163.973 185.329 165.31 172.233 162.705C159.136 160.1 147.106 153.67 137.664 144.228C128.222 134.786 121.792 122.756 119.187 109.659C116.582 96.5625 117.919 82.9877 123.029 70.651C128.139 58.3144 136.793 47.7702 147.896 40.3517C158.999 32.9333 172.052 28.9738 185.405 28.974C194.271 28.974 203.05 30.7203 211.241 34.1131C219.432 37.506 226.875 42.4789 233.144 48.7481C239.413 55.0173 244.386 62.4598 247.779 70.6509C251.172 78.8419 252.918 87.6211 252.918 96.487Z" fill="#529ED6"/>
<path fill-rule="evenodd" clip-rule="evenodd" d="M122.127 120.067C122.127 120.067 142.127 125.014 142.384 136.867C142.384 136.867 152.589 132.593 151.27 143.267C151.27 143.267 164.544 147.475 167.047 161.931C169.55 176.387 144.588 175.144 144.588 175.144" fill="#D7E6F6"/>
<path fill-rule="evenodd" clip-rule="evenodd" d="M251.629 120.067C251.629 120.067 231.629 125.014 231.374 136.867C231.374 136.867 221.167 132.593 222.487 143.267C222.487 143.267 209.214 147.475 206.71 161.931C204.206 176.387 229.169 175.144 229.169 175.144" fill="#D7E6F6"/>
<path fill-rule="evenodd" clip-rule="evenodd" d="M172.633 127.023C172.633 127.023 171.775 161.323 155.685 167.462H183.603V123.952" fill="#D7E6F6"/>
<path fill-rule="evenodd" clip-rule="evenodd" d="M194.734 127.023C194.734 127.023 195.59 161.323 211.682 167.462H183.763V123.952" fill="#D7E6F6"/>
<path d="M183.842 168.272C183.842 168.272 203.565 138.807 183.829 138.709C164.093 138.611 183.842 168.272 183.842 168.272Z" fill="#5F6771"/>
<path d="M207.515 119.364C207.508 127.149 196.909 133.387 183.84 133.301C170.771 133.215 160.182 126.828 160.19 119.044C160.198 111.26 170.797 105.018 183.866 105.104C196.935 105.19 207.522 111.577 207.515 119.364Z" fill="white"/>
<path d="M207.519 114.807C207.519 121.661 196.913 127.146 183.847 127.059C170.781 126.972 160.187 121.339 160.196 114.488C160.205 107.637 170.796 102.148 183.869 102.235C196.942 102.322 207.526 107.953 207.519 114.807Z" fill="#5F6771"/>
<path d="M202.338 20.349C194.067 7.082 183.804 -0.330996 183.904 0.0110045C184.004 -0.329996 173.757 7.00201 165.511 20.191C155.125 36.5124 151.097 56.0804 154.191 75.177C157.481 100.454 161.304 114.577 164.198 122.202C165.015 121.179 166.187 120.499 167.48 120.296C168.774 120.094 170.097 120.384 171.188 121.108L171.212 121.116C171.371 121.131 171.537 121.145 171.646 121.145C172.451 121.14 173.256 121.088 174.055 120.988C174.355 120.939 174.864 120.861 175.039 120.83C175.396 120.769 175.752 120.703 176.111 120.649C177.245 120.47 178.379 120.298 179.522 120.183C185.46 119.574 191.415 119.929 197.369 119.983C198.189 120.008 198.993 120.208 199.729 120.57C200.464 120.933 201.114 121.448 201.633 122.083C202.267 122.438 202.837 122.899 203.316 123.446C206.253 116.141 210.295 101.927 213.739 75.438C216.797 56.2988 212.742 36.7022 202.338 20.349V20.349Z" fill="#5F6771"/>
<path d="M208.3 31.681C199.717 11.154 183.936 -0.254 183.9 0.0120003C183.87 -0.256 168.116 11.024 159.564 31.467C158.888 33.032 158.251 34.652 157.664 36.309C164.658 38.7266 171.929 40.2513 179.305 40.847C188.02 41.459 197.893 40.534 210.291 36.778C209.677 35.0293 209.013 33.3303 208.3 31.681Z" fill="#D97F27"/>
<path d="M208.3 31.681C199.717 11.154 183.936 -0.254 183.9 0.0120003C183.87 -0.256 168.116 11.024 159.564 31.467C158.888 33.032 158.251 34.652 157.664 36.309C164.658 38.7266 171.929 40.2513 179.305 40.847C188.02 41.459 197.893 40.534 210.291 36.778C209.677 35.0293 209.013 33.3303 208.3 31.681Z" fill="#5F6771"/>
<path d="M206.235 27.173C197.489 29.647 188.39 30.6328 179.317 30.089C173.347 29.6378 167.444 28.539 161.711 26.812C160.96 28.3047 160.246 29.8563 159.569 31.467C158.893 33.032 158.256 34.652 157.669 36.309C164.663 38.7266 171.934 40.2513 179.31 40.847C188.025 41.459 197.898 40.534 210.296 36.778C209.68 35.03 209.015 33.33 208.302 31.678C207.652 30.1253 206.963 28.6237 206.235 27.173Z" fill="white"/>
<path d="M212.464 102.421L201.016 90.372L200.986 125.488C202.72 130.987 203.708 136.694 203.924 142.456C204.509 143.612 205.224 142.988 205.224 142.988C205.224 142.988 212.024 115.525 213.432 109.772C214.84 104.019 212.464 102.421 212.464 102.421Z" fill="white"/>
<path d="M155.394 102.032L166.864 90.141L166.831 125.259C165.087 130.743 164.089 136.437 163.863 142.187C163.277 143.334 162.563 142.701 162.563 142.701C162.563 142.701 155.816 115.145 154.414 109.375C153.012 103.605 155.394 102.032 155.394 102.032Z" fill="white"/>
<path d="M183.291 150.52C183.291 150.52 182.591 146.842 181.756 141.329C181.546 139.953 181.328 138.461 181.106 136.88C180.884 135.299 180.662 133.636 180.424 131.913C180.21 130.191 179.975 128.413 179.783 126.604C179.568 124.794 179.396 122.958 179.205 121.122C179.014 119.286 178.716 117.448 178.398 115.637C178.059 113.886 177.858 112.111 177.798 110.329C177.779 108.666 177.918 107.005 178.213 105.369C178.461 103.872 178.792 102.391 179.205 100.931C179.565 99.6593 179.994 98.4082 180.49 97.183C180.883 96.1973 181.328 95.2333 181.823 94.295C182.023 93.895 182.242 93.537 182.423 93.226C182.604 92.915 182.754 92.652 182.902 92.438C183.178 92.009 183.352 91.781 183.352 91.781L184.525 91.788C184.525 91.788 184.7 92.02 184.97 92.451C185.12 92.668 185.27 92.935 185.452 93.251C185.634 93.567 185.852 93.924 186.052 94.327C186.543 95.2726 186.985 96.2429 187.376 97.234C187.869 98.4657 188.296 99.7232 188.653 101.001C189.063 102.464 189.392 103.949 189.638 105.449C189.927 107.088 190.061 108.75 190.038 110.414C189.972 112.194 189.767 113.966 189.426 115.714C189.102 117.514 188.793 119.352 188.607 121.185C188.421 123.018 188.237 124.853 188.02 126.658C187.82 128.464 187.589 130.24 187.369 131.958C187.129 133.678 186.911 135.339 186.678 136.915C186.445 138.491 186.231 139.981 186.019 141.357C185.175 146.857 184.468 150.523 184.468 150.523L183.291 150.52Z" fill="white"/>
<path d="M195.679 66.335C195.68 67.8961 195.372 69.4419 194.772 70.8834C194.173 72.3249 193.295 73.6336 192.188 74.7342C191.081 75.8348 189.767 76.7055 188.322 77.2962C186.877 77.8869 185.329 78.1859 183.768 78.176C180.606 78.1644 177.577 76.9027 175.342 74.6662C173.107 72.4297 171.847 69.3999 171.837 66.238C171.837 64.6773 172.145 63.1319 172.745 61.6908C173.344 60.2498 174.223 58.9416 175.33 57.8415C176.437 56.7413 177.75 55.8711 179.195 55.2808C180.64 54.6905 182.187 54.3918 183.748 54.402C186.909 54.4133 189.938 55.6743 192.173 57.9097C194.408 60.1452 195.668 63.1738 195.679 66.335V66.335Z" fill="#529ED6"/>
<path d="M193.526 65.289C193.527 66.6958 193.249 68.0887 192.709 69.3877C192.169 70.6867 191.377 71.866 190.379 72.8577C189.382 73.8495 188.198 74.6341 186.896 75.1663C185.593 75.6986 184.199 75.968 182.792 75.959C179.943 75.9484 177.213 74.8114 175.199 72.796C173.185 70.7805 172.05 68.0503 172.041 65.201C172.041 63.7947 172.319 62.4023 172.859 61.1038C173.399 59.8054 174.191 58.6266 175.188 57.6353C176.185 56.6439 177.369 55.8597 178.671 55.3276C179.973 54.7955 181.367 54.5262 182.773 54.535C185.622 54.545 188.351 55.6813 190.366 57.6959C192.38 59.7105 193.516 62.44 193.526 65.289Z" fill="#D7E6F6"/>
<path d="M193.047 76.652C190.716 78.7512 187.734 79.9858 184.601 80.1492C181.468 80.3125 178.374 79.3946 175.836 77.5492C173.299 75.7038 171.473 73.0428 170.664 70.0118C169.854 66.9807 170.11 63.7636 171.389 60.8989C172.669 58.0342 174.893 55.6959 177.69 54.2753C180.487 52.8548 183.688 52.4382 186.755 53.0955C189.823 53.7527 192.572 55.4437 194.542 57.8855C196.511 60.3273 197.583 63.3717 197.576 66.509C197.574 68.4227 197.17 70.3147 196.39 72.0621C195.61 73.8095 194.471 75.3733 193.047 76.652ZM176.622 58.412C175.498 59.4192 174.598 60.6524 173.983 62.031C173.368 63.4095 173.051 64.9024 173.053 66.412C173.064 69.2814 174.208 72.0304 176.236 74.0602C178.264 76.0899 181.013 77.2361 183.882 77.249C185.297 77.2582 186.701 76.9873 188.011 76.4519C189.321 75.9165 190.512 75.1272 191.516 74.1293C192.52 73.1315 193.317 71.9449 193.86 70.638C194.403 69.331 194.683 67.9294 194.682 66.514C194.67 63.6442 193.525 60.8952 191.497 58.8652C189.468 56.8353 186.72 55.6887 183.85 55.675C181.185 55.6602 178.609 56.6356 176.622 58.412V58.412Z" fill="white"/>
<path d="M184.917 50.555C184.917 50.7237 184.883 50.8907 184.818 51.0463C184.753 51.202 184.658 51.3432 184.538 51.4619C184.419 51.5807 184.276 51.6745 184.12 51.738C183.964 51.8015 183.797 51.8335 183.628 51.832C183.286 51.8307 182.958 51.6939 182.717 51.4516C182.475 51.2093 182.339 50.8811 182.339 50.539C182.339 50.3702 182.373 50.2031 182.438 50.0473C182.503 49.8915 182.598 49.7502 182.718 49.6313C182.838 49.5124 182.98 49.4184 183.136 49.3547C183.293 49.291 183.46 49.2588 183.629 49.26C183.971 49.2631 184.298 49.4008 184.539 49.6432C184.78 49.8856 184.916 50.2132 184.917 50.555V50.555Z" fill="white"/>
<path d="M179.398 51.13C179.456 51.2886 179.481 51.457 179.474 51.6256C179.466 51.7941 179.425 51.9595 179.353 52.1121C179.281 52.2647 179.179 52.4016 179.054 52.5149C178.929 52.6281 178.783 52.7155 178.624 52.772C178.302 52.8852 177.948 52.867 177.639 52.7214C177.33 52.5758 177.091 52.3145 176.973 51.994C176.915 51.8355 176.89 51.6672 176.897 51.4988C176.905 51.3303 176.946 51.165 177.017 51.0124C177.089 50.8598 177.19 50.7229 177.315 50.6095C177.44 50.4962 177.586 50.4087 177.745 50.352C178.067 50.2382 178.422 50.256 178.731 50.4017C179.041 50.5473 179.28 50.809 179.398 51.13Z" fill="white"/>
<path d="M174.415 53.554C174.576 53.7498 174.675 53.9889 174.701 54.2412C174.726 54.4935 174.676 54.7476 174.557 54.9715C174.438 55.1954 174.256 55.3791 174.033 55.4995C173.81 55.6198 173.556 55.6715 173.303 55.6478C173.051 55.6242 172.811 55.5263 172.614 55.3666C172.417 55.2069 172.272 54.9925 172.197 54.7504C172.122 54.5083 172.12 54.2494 172.192 54.0062C172.263 53.763 172.405 53.5465 172.6 53.384C172.73 53.2748 172.88 53.1926 173.042 53.142C173.204 53.0914 173.374 53.0735 173.543 53.0893C173.712 53.1052 173.876 53.1544 174.026 53.2341C174.175 53.3139 174.308 53.4226 174.415 53.554Z" fill="white"/>
<path d="M170.573 57.534C170.792 57.6625 170.967 57.8529 171.077 58.0811C171.188 58.3094 171.228 58.5652 171.193 58.8163C171.159 59.0674 171.05 59.3026 170.882 59.4921C170.713 59.6816 170.492 59.817 170.247 59.8811C170.002 59.9453 169.743 59.9353 169.503 59.8525C169.264 59.7697 169.054 59.6178 168.901 59.4158C168.747 59.2139 168.657 58.9711 168.642 58.7181C168.626 58.465 168.686 58.2131 168.814 57.994C168.899 57.8482 169.012 57.7207 169.147 57.6187C169.281 57.5167 169.435 57.4422 169.598 57.3994C169.762 57.3567 169.932 57.3466 170.099 57.3697C170.266 57.3928 170.427 57.4486 170.573 57.534Z" fill="white"/>
<path d="M168.336 62.592C168.586 62.6376 168.816 62.7563 168.999 62.933C169.181 63.1097 169.307 63.3365 169.36 63.5848C169.414 63.833 169.393 64.0915 169.299 64.3276C169.206 64.5637 169.044 64.7668 168.835 64.9112C168.627 65.0556 168.38 65.1349 168.126 65.1389C167.872 65.143 167.623 65.0717 167.409 64.934C167.196 64.7963 167.028 64.5985 166.927 64.3655C166.826 64.1325 166.796 63.8748 166.842 63.625C166.905 63.2907 167.097 62.9947 167.377 62.8013C167.656 62.6079 168.001 62.5327 168.336 62.592V62.592Z" fill="white"/>
<path d="M167.971 68.117C168.308 68.0595 168.654 68.1376 168.934 68.3343C169.213 68.5311 169.403 68.8304 169.463 69.167C169.493 69.3331 169.489 69.5035 169.452 69.6682C169.415 69.8329 169.347 69.9887 169.249 70.1266C169.152 70.2645 169.028 70.3818 168.886 70.4716C168.743 70.5615 168.583 70.6221 168.417 70.65C168.08 70.7059 167.735 70.627 167.456 70.4303C167.176 70.2337 166.986 69.935 166.925 69.599C166.896 69.4329 166.899 69.2627 166.936 69.0981C166.973 68.9335 167.042 68.7778 167.139 68.64C167.236 68.5022 167.36 68.3851 167.503 68.2953C167.646 68.2055 167.805 68.1449 167.971 68.117V68.117Z" fill="white"/>
<path d="M169.524 73.44C169.821 73.2718 170.173 73.2279 170.503 73.318C170.832 73.4081 171.113 73.6249 171.283 73.921C171.367 74.067 171.422 74.2282 171.444 74.3954C171.466 74.5627 171.455 74.7326 171.411 74.8954C171.367 75.0583 171.291 75.2108 171.188 75.3442C171.085 75.4777 170.956 75.5894 170.81 75.673C170.512 75.8406 170.16 75.8841 169.83 75.7941C169.5 75.704 169.219 75.4877 169.048 75.192C168.964 75.0458 168.909 74.8844 168.888 74.7171C168.866 74.5498 168.878 74.3799 168.922 74.2171C168.966 74.0543 169.042 73.9019 169.145 73.7685C169.249 73.6352 169.377 73.5235 169.524 73.44V73.44Z" fill="white"/>
<path d="M172.807 77.924C172.971 77.7277 173.189 77.5843 173.434 77.5122C173.679 77.4401 173.94 77.4425 174.184 77.519C174.428 77.5956 174.644 77.7428 174.804 77.9421C174.964 78.1414 175.061 78.3837 175.083 78.6384C175.105 78.893 175.051 79.1485 174.928 79.3723C174.805 79.5962 174.617 79.7784 174.39 79.8958C174.163 80.0131 173.907 80.0604 173.653 80.0316C173.399 80.0028 173.159 79.8992 172.964 79.734C172.704 79.514 172.542 79.2003 172.513 78.8613C172.483 78.5223 172.589 78.1854 172.807 77.924V77.924Z" fill="white"/>
<path d="M177.425 81.024C177.512 80.7839 177.669 80.575 177.874 80.4239C178.08 80.2727 178.327 80.1861 178.582 80.175C178.837 80.164 179.09 80.2289 179.308 80.3617C179.526 80.4944 179.7 80.6889 179.808 80.9206C179.915 81.1523 179.952 81.4108 179.912 81.6631C179.873 81.9155 179.759 82.1505 179.586 82.3383C179.413 82.5261 179.188 82.6583 178.94 82.718C178.691 82.7778 178.431 82.7625 178.191 82.674C178.032 82.6166 177.886 82.5282 177.761 82.414C177.636 82.2998 177.535 82.162 177.464 82.0086C177.393 81.8552 177.353 81.6892 177.346 81.5202C177.339 81.3512 177.366 81.1826 177.425 81.024V81.024Z" fill="white"/>
<path d="M182.817 82.368C182.817 82.1992 182.851 82.0321 182.916 81.8764C182.981 81.7206 183.076 81.5792 183.195 81.4603C183.315 81.3415 183.457 81.2475 183.614 81.1837C183.77 81.12 183.937 81.0878 184.106 81.089C184.448 81.0903 184.775 81.2269 185.017 81.469C185.259 81.7111 185.394 82.039 185.395 82.381C185.395 82.5502 185.362 82.7177 185.297 82.8739C185.231 83.03 185.136 83.1717 185.016 83.2907C184.895 83.4096 184.753 83.5035 184.596 83.5669C184.439 83.6303 184.271 83.662 184.102 83.66C183.761 83.6579 183.434 83.5208 183.193 83.2788C182.953 83.0368 182.817 82.7094 182.817 82.368Z" fill="white"/>
<path d="M188.337 81.791C188.279 81.6327 188.253 81.4644 188.261 81.296C188.268 81.1276 188.309 80.9623 188.38 80.8097C188.452 80.6572 188.553 80.5203 188.678 80.407C188.803 80.2938 188.949 80.2064 189.108 80.15C189.348 80.0626 189.608 80.0482 189.855 80.1088C190.103 80.1695 190.327 80.3023 190.499 80.4904C190.671 80.6786 190.783 80.9136 190.822 81.1656C190.86 81.4177 190.823 81.6755 190.714 81.9063C190.606 82.137 190.431 82.3304 190.213 82.4618C189.994 82.5932 189.742 82.6568 189.487 82.6445C189.232 82.6321 188.987 82.5444 188.782 82.3924C188.578 82.2405 188.423 82.0312 188.337 81.791V81.791Z" fill="white"/>
<path d="M193.319 79.369C193.157 79.1733 193.057 78.934 193.032 78.6815C193.006 78.429 193.055 78.1745 193.174 77.9502C193.293 77.7258 193.475 77.5416 193.698 77.4208C193.922 77.3 194.176 77.2481 194.428 77.2714C194.681 77.2948 194.921 77.3926 195.119 77.5523C195.316 77.712 195.461 77.9265 195.537 78.1689C195.612 78.4112 195.614 78.6705 195.543 78.914C195.471 79.1574 195.329 79.3742 195.134 79.537C194.871 79.7544 194.532 79.8587 194.192 79.8272C193.852 79.7957 193.538 79.631 193.319 79.369V79.369Z" fill="white"/>
<path d="M197.162 75.384C196.943 75.2555 196.768 75.0651 196.658 74.8368C196.547 74.6086 196.507 74.3528 196.542 74.1017C196.577 73.8506 196.685 73.6154 196.853 73.4259C197.022 73.2364 197.243 73.101 197.488 73.0368C197.733 72.9727 197.992 72.9827 198.232 73.0655C198.471 73.1483 198.681 73.3003 198.834 73.5022C198.988 73.7041 199.078 73.9469 199.093 74.1999C199.109 74.453 199.049 74.7049 198.921 74.924C198.836 75.07 198.723 75.1977 198.588 75.2999C198.454 75.402 198.301 75.4766 198.137 75.5194C197.974 75.5621 197.803 75.5721 197.636 75.5489C197.469 75.5257 197.308 75.4697 197.162 75.384V75.384Z" fill="white"/>
<path d="M199.399 70.329C199.149 70.2835 198.918 70.1649 198.736 69.9882C198.553 69.8115 198.427 69.5847 198.374 69.3364C198.32 69.0881 198.342 68.8295 198.435 68.5933C198.529 68.3571 198.69 68.154 198.899 68.0095C199.108 67.8651 199.355 67.7859 199.609 67.7819C199.863 67.778 200.112 67.8494 200.326 67.9872C200.539 68.125 200.707 68.3231 200.808 68.5562C200.908 68.7893 200.938 69.0471 200.892 69.297C200.829 69.631 200.637 69.9267 200.358 70.12C200.078 70.3132 199.734 70.3883 199.399 70.329V70.329Z" fill="white"/>
<path d="M199.763 64.805C199.426 64.8628 199.08 64.7847 198.801 64.5879C198.521 64.3912 198.331 64.0916 198.272 63.755C198.242 63.5888 198.246 63.4184 198.283 63.2537C198.319 63.0889 198.388 62.9331 198.486 62.7952C198.583 62.6573 198.707 62.5402 198.85 62.4505C198.993 62.3609 199.153 62.3005 199.319 62.273C199.656 62.2174 200.001 62.2964 200.28 62.4931C200.559 62.6897 200.749 62.9882 200.81 63.324C200.839 63.4901 200.835 63.6603 200.798 63.8248C200.762 63.9894 200.692 64.145 200.595 64.2826C200.498 64.4203 200.374 64.5374 200.231 64.6271C200.089 64.7167 199.929 64.7772 199.763 64.805V64.805Z" fill="white"/>
<path d="M198.21 59.48C197.989 59.6086 197.735 59.6686 197.48 59.6525C197.225 59.6364 196.981 59.5449 196.778 59.3895C196.575 59.2342 196.423 59.0221 196.341 58.7801C196.259 58.5382 196.25 58.2773 196.317 58.0306C196.383 57.7839 196.522 57.5625 196.714 57.3946C196.907 57.2266 197.145 57.1197 197.398 57.0874C197.652 57.0551 197.909 57.0988 198.138 57.2131C198.366 57.3273 198.556 57.5069 198.682 57.729C198.85 58.0242 198.894 58.3737 198.806 58.7014C198.717 59.0292 198.503 59.309 198.21 59.48V59.48Z" fill="white"/>
<path d="M194.926 54.999C194.762 55.1951 194.544 55.3381 194.298 55.4098C194.053 55.4816 193.792 55.4788 193.548 55.4019C193.304 55.3249 193.089 55.1773 192.929 54.9778C192.769 54.7782 192.673 54.5357 192.651 54.281C192.629 54.0263 192.684 53.771 192.807 53.5473C192.931 53.3236 193.119 53.1417 193.346 53.0247C193.573 52.9077 193.83 52.8609 194.084 52.8901C194.338 52.9194 194.577 53.0234 194.772 53.189C195.032 53.4088 195.194 53.7229 195.223 54.0622C195.252 54.4015 195.145 54.7384 194.926 54.999Z" fill="white"/>
<path d="M190.31 51.898C190.223 52.138 190.066 52.3468 189.86 52.4978C189.655 52.6489 189.408 52.7354 189.153 52.7464C188.898 52.7575 188.645 52.6925 188.427 52.5599C188.209 52.4272 188.035 52.2327 187.928 52.0011C187.82 51.7695 187.784 51.5112 187.823 51.2589C187.862 51.0066 187.976 50.7716 188.149 50.5838C188.322 50.3959 188.546 50.2636 188.795 50.2037C189.043 50.1437 189.303 50.1588 189.543 50.247C189.702 50.3042 189.849 50.3925 189.974 50.5067C190.099 50.6209 190.2 50.7588 190.271 50.9124C190.343 51.0659 190.383 51.2321 190.389 51.4013C190.396 51.5705 190.369 51.7393 190.31 51.898Z" fill="white"/>
</g>
<defs>
<clipPath id="clip0">
<rect width="366.677" height="175.177" fill="white"/>
</clipPath>
</defs>
</svg>
