<svg id="Rocket_Clouds" data-name="Rocket + Clouds" xmlns="http://www.w3.org/2000/svg" width="366.677" height="175.177" viewBox="0 0 366.677 175.177">
  <g id="Group_618" data-name="Group 618" transform="translate(5.136 68.694)">
    <g id="Group_613" data-name="Group 613" transform="translate(58.254 16.326)">
      <path id="Path_307" data-name="Path 307" d="M499.252,184.78a13.6,13.6,0,1,0-27.1-1.673,13.687,13.687,0,0,0,.113,1.673Z" transform="translate(-472.154 -169.501)" fill="#fff"/>
    </g>
    <g id="Group_614" data-name="Group 614" transform="translate(18.685)">
      <path id="Path_308" data-name="Path 308" d="M459.108,181.026a19.784,19.784,0,1,0-31.676,0Z" transform="translate(-423.486 -149.421)" fill="#fff"/>
    </g>
    <g id="Group_615" data-name="Group 615" transform="translate(0 12.877)">
      <path id="Path_309" data-name="Path 309" d="M437.87,183.987c0-.014,0-.028,0-.044a18.684,18.684,0,1,0-37.369,0c0,.015,0,.03,0,.044Z" transform="translate(-400.504 -165.259)" fill="#fff"/>
    </g>
    <g id="Group_616" data-name="Group 616" transform="translate(19.419 23.842)">
      <path id="Path_310" data-name="Path 310" d="M451.957,186.509a16.119,16.119,0,0,0-27.569,0Z" transform="translate(-424.388 -178.745)" fill="#fff"/>
    </g>
    <g id="Group_617" data-name="Group 617" transform="translate(34.069 10.235)">
      <path id="Path_311" data-name="Path 311" d="M481.729,183.38c.046-.55.085-1.1.085-1.666a19.7,19.7,0,1,0-39.406,0c0,.563.037,1.116.084,1.666Z" transform="translate(-442.407 -162.01)" fill="#fff"/>
    </g>
  </g>
  <g id="Group_625" data-name="Group 625" transform="translate(73.874 3.586)">
    <g id="Group_619" data-name="Group 619" transform="translate(0 8.108)">
      <path id="Path_312" data-name="Path 312" d="M504.844,90.41c0-.078.009-.152.009-.228,0-6-4.433-10.87-9.9-10.87s-9.9,4.866-9.9,10.87c0,.076.009.15.011.228Z" transform="translate(-485.048 -79.313)" fill="#d7e6f6"/>
    </g>
    <g id="Group_620" data-name="Group 620" transform="translate(50.705 12.558)">
      <path id="Path_313" data-name="Path 313" d="M562.723,91.434a7.732,7.732,0,0,0-15.31,0Z" transform="translate(-547.413 -84.787)" fill="#d7e6f6"/>
    </g>
    <g id="Group_621" data-name="Group 621" transform="translate(28.8)">
      <path id="Path_314" data-name="Path 314" d="M524.021,88.546h12.7a11.3,11.3,0,0,0,3.551-8.336c0-6-4.434-10.869-9.9-10.869s-9.9,4.866-9.9,10.869A11.29,11.29,0,0,0,524.021,88.546Z" transform="translate(-520.471 -69.341)" fill="#d7e6f6"/>
    </g>
    <g id="Group_622" data-name="Group 622" transform="translate(37.051 8.805)">
      <path id="Path_315" data-name="Path 315" d="M553.727,90.571c-1.074-5.929-5.836-10.4-11.554-10.4s-10.48,4.47-11.554,10.4Z" transform="translate(-530.619 -80.171)" fill="#d7e6f6"/>
    </g>
    <g id="Group_623" data-name="Group 623" transform="translate(31.514 14.111)">
      <path id="Path_316" data-name="Path 316" d="M540.565,91.791a9.437,9.437,0,0,0-16.756,0Z" transform="translate(-523.809 -86.697)" fill="#d7e6f6"/>
    </g>
    <g id="Group_624" data-name="Group 624" transform="translate(8.728 3.242)">
      <path id="Path_317" data-name="Path 317" d="M523.911,84.724c-1.719-6.582-7.24-11.4-13.787-11.4-7.921,0-14.341,7.047-14.341,15.74,0,.074.008.146.01.223h28.66c0-.076.011-.149.011-.223a17.22,17.22,0,0,0-.554-4.344" transform="translate(-495.783 -73.328)" fill="#d7e6f6"/>
    </g>
  </g>
  <g id="Group_632" data-name="Group 632" transform="translate(269.326 19.041)">
    <g id="Group_626" data-name="Group 626" transform="translate(0 11.957)">
      <path id="Path_318" data-name="Path 318" d="M754.636,119.421c0-.113.015-.222.015-.336,0-8.852-6.538-16.028-14.6-16.028s-14.6,7.176-14.6,16.028c0,.114.014.223.016.336Z" transform="translate(-725.445 -103.057)" fill="#fff"/>
    </g>
    <g id="Group_627" data-name="Group 627" transform="translate(74.775 18.52)">
      <path id="Path_319" data-name="Path 319" d="M839.991,120.93c-1.211-5.617-5.8-9.8-11.286-9.8s-10.078,4.183-11.29,9.8Z" transform="translate(-817.415 -111.13)" fill="#fff"/>
    </g>
    <g id="Group_628" data-name="Group 628" transform="translate(42.472)">
      <path id="Path_320" data-name="Path 320" d="M782.918,116.672h18.734a16.645,16.645,0,0,0,5.237-12.291c0-8.852-6.538-16.03-14.6-16.03s-14.6,7.178-14.6,16.03A16.65,16.65,0,0,0,782.918,116.672Z" transform="translate(-777.683 -88.351)" fill="#fff"/>
    </g>
    <g id="Group_629" data-name="Group 629" transform="translate(54.639 12.986)">
      <path id="Path_321" data-name="Path 321" d="M826.727,119.658c-1.583-8.743-8.608-15.335-17.04-15.335s-15.455,6.591-17.038,15.335Z" transform="translate(-792.649 -104.323)" fill="#fff"/>
    </g>
    <g id="Group_630" data-name="Group 630" transform="translate(46.473 20.81)">
      <path id="Path_322" data-name="Path 322" d="M807.315,121.457a13.918,13.918,0,0,0-24.711,0Z" transform="translate(-782.604 -113.946)" fill="#fff"/>
    </g>
    <g id="Group_631" data-name="Group 631" transform="translate(12.871 4.781)">
      <path id="Path_323" data-name="Path 323" d="M782.756,111.037c-2.534-9.7-10.676-16.806-20.332-16.806-11.679,0-21.148,10.392-21.148,23.212,0,.111.013.217.015.328h42.267c0-.111.015-.217.015-.328a25.359,25.359,0,0,0-.816-6.407" transform="translate(-741.276 -94.231)" fill="#fff"/>
    </g>
  </g>
  <g id="Group_653" data-name="Group 653" transform="translate(0 7.57)" opacity="0.15">
    <g id="Group_639" data-name="Group 639" transform="translate(264.192 15.458)">
      <g id="Group_633" data-name="Group 633" transform="translate(0 11.955)">
        <path id="Path_324" data-name="Path 324" d="M748.321,124.323c0-.113.015-.223.015-.336,0-8.852-6.537-16.029-14.6-16.029s-14.6,7.177-14.6,16.029c0,.113.012.223.015.336Z" transform="translate(-719.131 -107.958)" fill="#fff"/>
      </g>
      <g id="Group_634" data-name="Group 634" transform="translate(74.772 18.519)">
        <path id="Path_325" data-name="Path 325" d="M833.676,125.832c-1.213-5.617-5.8-9.8-11.287-9.8s-10.078,4.184-11.291,9.8Z" transform="translate(-811.097 -116.031)" fill="#fff"/>
      </g>
      <g id="Group_635" data-name="Group 635" transform="translate(42.469)">
        <path id="Path_326" data-name="Path 326" d="M776.6,121.574h18.735a16.65,16.65,0,0,0,5.236-12.292c0-8.852-6.538-16.028-14.6-16.028s-14.6,7.176-14.6,16.028A16.652,16.652,0,0,0,776.6,121.574Z" transform="translate(-771.366 -93.254)" fill="#fff"/>
      </g>
      <g id="Group_636" data-name="Group 636" transform="translate(54.637 12.984)">
        <path id="Path_327" data-name="Path 327" d="M820.41,124.56c-1.585-8.743-8.61-15.336-17.04-15.336s-15.455,6.592-17.038,15.336Z" transform="translate(-786.332 -109.224)" fill="#fff"/>
      </g>
      <g id="Group_637" data-name="Group 637" transform="translate(46.472 20.809)">
        <path id="Path_328" data-name="Path 328" d="M801,126.359a13.918,13.918,0,0,0-24.711,0Z" transform="translate(-776.289 -118.848)" fill="#fff"/>
      </g>
      <g id="Group_638" data-name="Group 638" transform="translate(12.869 4.779)">
        <path id="Path_329" data-name="Path 329" d="M776.438,115.938c-2.532-9.7-10.676-16.806-20.331-16.806-11.679,0-21.148,10.393-21.148,23.213,0,.11.014.216.016.328H777.24c0-.111.015-.218.015-.328a25.337,25.337,0,0,0-.817-6.408" transform="translate(-734.959 -99.132)" fill="#fff"/>
      </g>
    </g>
    <g id="Group_646" data-name="Group 646" transform="translate(68.738)">
      <g id="Group_640" data-name="Group 640" transform="translate(0 8.108)">
        <path id="Path_330" data-name="Path 330" d="M498.526,95.311c0-.077.01-.151.01-.228,0-6-4.433-10.869-9.9-10.869s-9.9,4.865-9.9,10.869c0,.076.008.15.011.228Z" transform="translate(-478.731 -84.215)" fill="#fff"/>
      </g>
      <g id="Group_641" data-name="Group 641" transform="translate(50.705 12.558)">
        <path id="Path_331" data-name="Path 331" d="M556.407,96.335a7.732,7.732,0,0,0-15.311,0Z" transform="translate(-541.096 -89.688)" fill="#fff"/>
      </g>
      <g id="Group_642" data-name="Group 642" transform="translate(28.8)">
        <path id="Path_332" data-name="Path 332" d="M517.7,93.447H530.41a11.3,11.3,0,0,0,3.55-8.335c0-6-4.433-10.87-9.9-10.87s-9.9,4.867-9.9,10.87A11.29,11.29,0,0,0,517.7,93.447Z" transform="translate(-514.153 -74.242)" fill="#fff"/>
      </g>
      <g id="Group_643" data-name="Group 643" transform="translate(37.05 8.805)">
        <path id="Path_333" data-name="Path 333" d="M547.41,95.472c-1.073-5.928-5.838-10.4-11.553-10.4s-10.481,4.472-11.556,10.4Z" transform="translate(-524.301 -85.072)" fill="#fff"/>
      </g>
      <g id="Group_644" data-name="Group 644" transform="translate(31.513 14.111)">
        <path id="Path_334" data-name="Path 334" d="M534.247,96.692a9.437,9.437,0,0,0-16.756,0Z" transform="translate(-517.491 -91.598)" fill="#fff"/>
      </g>
      <g id="Group_645" data-name="Group 645" transform="translate(8.727 3.242)">
        <path id="Path_335" data-name="Path 335" d="M517.594,89.625c-1.719-6.581-7.24-11.4-13.789-11.4-7.919,0-14.34,7.047-14.34,15.74,0,.075.01.149.011.223h28.661c0-.074.01-.148.01-.223a17.226,17.226,0,0,0-.552-4.344" transform="translate(-489.465 -78.229)" fill="#fff"/>
      </g>
    </g>
    <g id="Group_652" data-name="Group 652" transform="translate(0 65.11)">
      <g id="Group_647" data-name="Group 647" transform="translate(58.254 16.325)">
        <path id="Path_336" data-name="Path 336" d="M492.936,189.682a13.606,13.606,0,1,0-26.986,0Z" transform="translate(-465.837 -174.403)" fill="#fff"/>
      </g>
      <g id="Group_648" data-name="Group 648" transform="translate(18.685)">
        <path id="Path_337" data-name="Path 337" d="M452.791,185.928a19.784,19.784,0,1,0-31.675,0Z" transform="translate(-417.169 -154.324)" fill="#fff"/>
      </g>
      <g id="Group_649" data-name="Group 649" transform="translate(0 12.876)">
        <path id="Path_338" data-name="Path 338" d="M431.553,188.889c0-.015,0-.029,0-.043a18.684,18.684,0,1,0-37.368,0c0,.014,0,.028,0,.043Z" transform="translate(-394.187 -170.161)" fill="#fff"/>
      </g>
      <g id="Group_650" data-name="Group 650" transform="translate(19.419 23.841)">
        <path id="Path_339" data-name="Path 339" d="M445.639,191.411a16.119,16.119,0,0,0-27.569,0Z" transform="translate(-418.071 -183.647)" fill="#fff"/>
      </g>
      <g id="Group_651" data-name="Group 651" transform="translate(34.069 10.235)">
        <path id="Path_340" data-name="Path 340" d="M475.412,188.282c.046-.551.085-1.1.085-1.668a19.7,19.7,0,0,0-39.406,0c0,.563.038,1.116.084,1.668Z" transform="translate(-436.09 -166.913)" fill="#fff"/>
      </g>
    </g>
  </g>
  <g id="Group_725" data-name="Group 725" transform="translate(133.891)">
    <g id="Group_657" data-name="Group 657" transform="translate(0 28.974)">
      <g id="Group_654" data-name="Group 654">
        <path id="Path_341" data-name="Path 341" d="M693.894,168.08a67.514,67.514,0,1,1-67.513-67.513A67.513,67.513,0,0,1,693.894,168.08Z" transform="translate(-558.867 -100.567)" fill="#529ed6"/>
      </g>
      <g id="Group_655" data-name="Group 655" transform="translate(4.236 91.093)">
        <path id="Path_342" data-name="Path 342" d="M564.077,212.607s20,4.947,20.257,16.8c0,0,10.205-4.274,8.886,6.4,0,0,13.274,4.208,15.777,18.664s-22.459,13.213-22.459,13.213" transform="translate(-564.077 -212.607)" fill="#d7e6f6" fill-rule="evenodd"/>
      </g>
      <g id="Group_656" data-name="Group 656" transform="translate(88.642 91.093)">
        <path id="Path_343" data-name="Path 343" d="M712.989,212.607s-20,4.947-20.255,16.8c0,0-10.207-4.274-8.887,6.4,0,0-13.273,4.208-15.777,18.664s22.459,13.213,22.459,13.213" transform="translate(-667.893 -212.607)" fill="#d7e6f6" fill-rule="evenodd"/>
      </g>
    </g>
    <g id="Group_658" data-name="Group 658" transform="translate(37.795 123.952)">
      <path id="Path_344" data-name="Path 344" d="M622.3,220.457s-.858,34.3-16.948,40.439h27.918v-43.51" transform="translate(-605.353 -217.386)" fill="#d7e6f6" fill-rule="evenodd"/>
    </g>
    <g id="Group_659" data-name="Group 659" transform="translate(65.872 123.952)">
      <path id="Path_345" data-name="Path 345" d="M650.858,220.457s.856,34.3,16.948,40.439H639.887v-43.51" transform="translate(-639.887 -217.386)" fill="#d7e6f6" fill-rule="evenodd"/>
    </g>
    <g id="Group_724" data-name="Group 724" transform="translate(35.312)">
      <g id="Group_661" data-name="Group 661" transform="translate(21.858 138.711)">
        <g id="Group_660" data-name="Group 660" transform="translate(0 0)">
          <path id="Path_346" data-name="Path 346" d="M637.964,265.1s19.723-29.465-.013-29.563S637.964,265.1,637.964,265.1Z" transform="translate(-629.183 -235.539)" fill="#5f6771"/>
        </g>
      </g>
      <g id="Group_663" data-name="Group 663" transform="translate(6.987 105.103)">
        <g id="Group_662" data-name="Group 662">
          <path id="Path_347" data-name="Path 347" d="M658.218,208.464c-.007,7.785-10.606,14.023-23.675,13.937s-23.658-6.473-23.65-14.257,10.607-14.026,23.676-13.94S658.225,200.677,658.218,208.464Z" transform="translate(-610.893 -194.203)" fill="#fff"/>
        </g>
      </g>
      <g id="Group_665" data-name="Group 665" transform="translate(6.992 102.234)">
        <g id="Group_664" data-name="Group 664">
          <path id="Path_348" data-name="Path 348" d="M658.223,203.247c0,6.854-10.606,12.339-23.672,12.252s-23.66-5.72-23.651-12.571,10.6-12.34,23.673-12.253S658.23,196.393,658.223,203.247Z" transform="translate(-610.899 -190.674)" fill="#5f6771"/>
        </g>
      </g>
      <g id="Group_667" data-name="Group 667">
        <g id="Group_666" data-name="Group 666">
          <path id="Path_349" data-name="Path 349" d="M651.434,85.28C643.163,72.013,632.9,64.6,633,64.942c.1-.341-10.147,6.991-18.393,20.18a78.911,78.911,0,0,0-11.32,54.986c3.29,25.277,7.113,39.4,10.007,47.025a5.238,5.238,0,0,1,6.99-1.094l.024.008c.159.015.325.029.434.029a20.39,20.39,0,0,0,2.409-.157c.3-.049.809-.127.984-.158.357-.061.713-.127,1.072-.181,1.134-.179,2.268-.351,3.411-.466,5.938-.609,11.893-.254,17.847-.2a5.734,5.734,0,0,1,4.264,2.1,6.4,6.4,0,0,1,1.683,1.363c2.937-7.305,6.979-21.519,10.423-48.008A79.316,79.316,0,0,0,651.434,85.28Z" transform="translate(-602.299 -64.931)" fill="#5f6771"/>
        </g>
      </g>
      <g id="Group_669" data-name="Group 669" transform="translate(4.465 0.007)">
        <g id="Group_668" data-name="Group 668">
          <path id="Path_350" data-name="Path 350" d="M658.423,96.613c-8.583-20.527-24.364-31.935-24.4-31.669-.03-.268-15.784,11.012-24.336,31.455-.676,1.565-1.313,3.185-1.9,4.842a87.9,87.9,0,0,0,21.641,4.538c8.715.612,18.588-.313,30.986-4.069Q659.493,99.087,658.423,96.613Z" transform="translate(-607.791 -64.939)" fill="#d97f27"/>
        </g>
      </g>
      <g id="Group_671" data-name="Group 671" transform="translate(4.465 0.007)">
        <g id="Group_670" data-name="Group 670">
          <path id="Path_351" data-name="Path 351" d="M658.423,96.613c-8.583-20.527-24.364-31.935-24.4-31.669-.03-.268-15.784,11.012-24.336,31.455-.676,1.565-1.313,3.185-1.9,4.842a87.9,87.9,0,0,0,21.641,4.538c8.715.612,18.588-.313,30.986-4.069Q659.493,99.087,658.423,96.613Z" transform="translate(-607.791 -64.939)" fill="#5f6771"/>
        </g>
      </g>
      <g id="Group_674" data-name="Group 674" transform="translate(4.465 26.812)">
        <g id="Group_673" data-name="Group 673">
          <g id="Group_672" data-name="Group 672">
            <path id="Path_352" data-name="Path 352" d="M656.358,98.269a81.07,81.07,0,0,1-26.918,2.916,82.625,82.625,0,0,1-17.606-3.277q-1.126,2.239-2.142,4.655c-.676,1.565-1.313,3.185-1.9,4.842a87.9,87.9,0,0,0,21.641,4.538c8.715.612,18.588-.313,30.986-4.069q-.924-2.622-1.994-5.1Q657.45,100.445,656.358,98.269Z" transform="translate(-607.791 -97.908)" fill="#fff"/>
          </g>
        </g>
      </g>
      <g id="Group_676" data-name="Group 676" transform="translate(47.783 90.372)">
        <g id="Group_675" data-name="Group 675">
          <path id="Path_353" data-name="Path 353" d="M672.548,188.133,661.1,176.084,661.07,211.2a64.44,64.44,0,0,1,2.938,16.968c.585,1.156,1.3.532,1.3.532s6.8-27.463,8.208-33.216S672.548,188.133,672.548,188.133Z" transform="translate(-661.07 -176.084)" fill="#fff"/>
        </g>
      </g>
      <g id="Group_678" data-name="Group 678" transform="translate(0.772 90.141)">
        <g id="Group_677" data-name="Group 677">
          <path id="Path_354" data-name="Path 354" d="M604.667,187.691l11.47-11.891-.033,35.118a64.163,64.163,0,0,0-2.968,16.928c-.586,1.147-1.3.514-1.3.514s-6.747-27.556-8.149-33.326S604.667,187.691,604.667,187.691Z" transform="translate(-603.248 -175.8)" fill="#fff"/>
        </g>
      </g>
      <g id="Group_680" data-name="Group 680" transform="translate(24.585 91.782)">
        <g id="Group_679" data-name="Group 679">
          <path id="Path_355" data-name="Path 355" d="M638.04,236.556s-.7-3.678-1.535-9.191c-.21-1.376-.428-2.868-.65-4.449s-.444-3.244-.682-4.967c-.214-1.722-.449-3.5-.641-5.309-.215-1.81-.387-3.646-.578-5.482s-.489-3.674-.807-5.485a34,34,0,0,1-.6-5.308,26.192,26.192,0,0,1,.415-4.96,40.707,40.707,0,0,1,.992-4.438,36.521,36.521,0,0,1,1.285-3.748,29.828,29.828,0,0,1,1.333-2.888c.2-.4.419-.758.6-1.069s.331-.574.479-.788c.276-.429.45-.657.45-.657l1.173.007s.175.232.445.663c.15.217.3.484.482.8s.4.673.6,1.076a30.977,30.977,0,0,1,1.324,2.907,36.721,36.721,0,0,1,1.277,3.767,41,41,0,0,1,.985,4.448,26.438,26.438,0,0,1,.4,4.965,34.275,34.275,0,0,1-.612,5.3c-.324,1.8-.633,3.638-.819,5.471s-.37,3.668-.587,5.473c-.2,1.806-.431,3.582-.651,5.3-.24,1.72-.458,3.381-.691,4.957s-.447,3.066-.659,4.442c-.844,5.5-1.551,9.166-1.551,9.166Z" transform="translate(-632.537 -177.818)" fill="#fff"/>
        </g>
      </g>
      <g id="Group_723" data-name="Group 723" transform="translate(13.619 49.261)">
        <g id="Group_682" data-name="Group 682" transform="translate(5.015 5.141)">
          <g id="Group_681" data-name="Group 681">
            <path id="Path_356" data-name="Path 356" d="M649.059,143.776a11.836,11.836,0,0,1-11.911,11.841,11.975,11.975,0,0,1-11.931-11.938,11.834,11.834,0,0,1,11.911-11.836A11.974,11.974,0,0,1,649.059,143.776Z" transform="translate(-625.217 -131.843)" fill="#529ed6"/>
          </g>
        </g>
        <g id="Group_684" data-name="Group 684" transform="translate(5.219 5.274)">
          <g id="Group_683" data-name="Group 683">
            <path id="Path_357" data-name="Path 357" d="M646.953,142.761a10.666,10.666,0,0,1-10.734,10.67,10.791,10.791,0,0,1-10.751-10.758A10.665,10.665,0,0,1,636.2,132.007,10.791,10.791,0,0,1,646.953,142.761Z" transform="translate(-625.468 -132.007)" fill="#d7e6f6"/>
          </g>
        </g>
        <g id="Group_686" data-name="Group 686" transform="translate(3.336 3.53)">
          <g id="Group_685" data-name="Group 685">
            <path id="Path_358" data-name="Path 358" d="M646.042,153.723a13.688,13.688,0,1,1,4.529-10.143A13.648,13.648,0,0,1,646.042,153.723Zm-16.425-18.24a10.724,10.724,0,0,0-3.569,8,10.878,10.878,0,0,0,10.829,10.837,10.73,10.73,0,0,0,10.8-10.735,10.884,10.884,0,0,0-10.832-10.839A10.755,10.755,0,0,0,629.617,135.483Z" transform="translate(-623.153 -129.862)" fill="#fff"/>
          </g>
        </g>
        <g id="Group_688" data-name="Group 688" transform="translate(15.518)">
          <g id="Group_687" data-name="Group 687">
            <path id="Path_359" data-name="Path 359" d="M640.713,126.814a1.278,1.278,0,0,1-1.289,1.277,1.294,1.294,0,0,1-1.289-1.293,1.281,1.281,0,0,1,1.29-1.279A1.3,1.3,0,0,1,640.713,126.814Z" transform="translate(-638.136 -125.52)" fill="#fff"/>
          </g>
        </g>
        <g id="Group_690" data-name="Group 690" transform="translate(10.074 1.016)">
          <g id="Group_689" data-name="Group 689">
            <path id="Path_360" data-name="Path 360" d="M633.942,127.623a1.279,1.279,0,0,1-.774,1.642,1.3,1.3,0,0,1-1.651-.778,1.279,1.279,0,0,1,.772-1.642A1.3,1.3,0,0,1,633.942,127.623Z" transform="translate(-631.44 -126.77)" fill="#fff"/>
          </g>
        </g>
        <g id="Group_692" data-name="Group 692" transform="translate(5.317 3.827)">
          <g id="Group_691" data-name="Group 691">
            <path id="Path_361" data-name="Path 361" d="M627.865,130.694a1.284,1.284,0,1,1-1.815-.17A1.28,1.28,0,0,1,627.865,130.694Z" transform="translate(-625.589 -130.228)" fill="#fff"/>
          </g>
        </g>
        <g id="Group_694" data-name="Group 694" transform="translate(1.818 8.097)">
          <g id="Group_693" data-name="Group 693">
            <path id="Path_362" data-name="Path 362" d="M623.218,135.655a1.283,1.283,0,1,1-1.759.46A1.285,1.285,0,0,1,623.218,135.655Z" transform="translate(-621.285 -135.479)" fill="#fff"/>
          </g>
        </g>
        <g id="Group_696" data-name="Group 696" transform="translate(0 13.31)">
          <g id="Group_695" data-name="Group 695">
            <path id="Path_363" data-name="Path 363" d="M620.563,141.912a1.284,1.284,0,1,1-1.494,1.033A1.291,1.291,0,0,1,620.563,141.912Z" transform="translate(-619.049 -141.891)" fill="#fff"/>
          </g>
        </g>
        <g id="Group_698" data-name="Group 698" transform="translate(0.083 18.837)">
          <g id="Group_697" data-name="Group 697">
            <path id="Path_364" data-name="Path 364" d="M620.218,148.708a1.294,1.294,0,0,1,1.492,1.05,1.277,1.277,0,0,1-1.046,1.483,1.3,1.3,0,0,1-1.492-1.051A1.277,1.277,0,0,1,620.218,148.708Z" transform="translate(-619.152 -148.689)" fill="#fff"/>
          </g>
        </g>
        <g id="Group_700" data-name="Group 700" transform="translate(2.056 24.011)">
          <g id="Group_699" data-name="Group 699">
            <path id="Path_365" data-name="Path 365" d="M622.224,155.22a1.294,1.294,0,0,1,1.759.481,1.279,1.279,0,0,1-.473,1.752,1.3,1.3,0,0,1-1.762-.481A1.281,1.281,0,0,1,622.224,155.22Z" transform="translate(-621.578 -155.052)" fill="#fff"/>
          </g>
        </g>
        <g id="Group_702" data-name="Group 702" transform="translate(5.682 28.209)">
          <g id="Group_701" data-name="Group 701">
            <path id="Path_366" data-name="Path 366" d="M626.34,160.669a1.29,1.29,0,1,1,.157,1.81A1.29,1.29,0,0,1,626.34,160.669Z" transform="translate(-626.037 -160.215)" fill="#fff"/>
          </g>
        </g>
        <g id="Group_704" data-name="Group 704" transform="translate(10.523 30.924)">
          <g id="Group_703" data-name="Group 703">
            <path id="Path_367" data-name="Path 367" d="M632.072,164.394a1.29,1.29,0,1,1,.766,1.65A1.281,1.281,0,0,1,632.072,164.394Z" transform="translate(-631.992 -163.555)" fill="#fff"/>
          </g>
        </g>
        <g id="Group_706" data-name="Group 706" transform="translate(15.995 31.828)">
          <g id="Group_705" data-name="Group 705">
            <path id="Path_368" data-name="Path 368" d="M638.723,165.946a1.28,1.28,0,0,1,1.289-1.279,1.294,1.294,0,0,1,1.289,1.292,1.278,1.278,0,0,1-1.293,1.279A1.293,1.293,0,0,1,638.723,165.946Z" transform="translate(-638.723 -164.667)" fill="#fff"/>
          </g>
        </g>
        <g id="Group_708" data-name="Group 708" transform="translate(21.438 30.813)">
          <g id="Group_707" data-name="Group 707">
            <path id="Path_369" data-name="Path 369" d="M645.494,165.135a1.276,1.276,0,0,1,.771-1.641,1.287,1.287,0,1,1-.771,1.641Z" transform="translate(-645.417 -163.418)" fill="#fff"/>
          </g>
        </g>
        <g id="Group_710" data-name="Group 710" transform="translate(26.196 28.001)">
          <g id="Group_709" data-name="Group 709">
            <path id="Path_370" data-name="Path 370" d="M651.57,162.067a1.285,1.285,0,1,1,1.815.168A1.293,1.293,0,0,1,651.57,162.067Z" transform="translate(-651.269 -159.96)" fill="#fff"/>
          </g>
        </g>
        <g id="Group_712" data-name="Group 712" transform="translate(29.694 23.731)">
          <g id="Group_711" data-name="Group 711">
            <path id="Path_371" data-name="Path 371" d="M656.218,157.1a1.283,1.283,0,1,1,1.759-.46A1.283,1.283,0,0,1,656.218,157.1Z" transform="translate(-655.572 -154.708)" fill="#fff"/>
          </g>
        </g>
        <g id="Group_714" data-name="Group 714" transform="translate(31.512 18.519)">
          <g id="Group_713" data-name="Group 713">
            <path id="Path_372" data-name="Path 372" d="M658.873,150.846a1.284,1.284,0,1,1,1.493-1.032A1.29,1.29,0,0,1,658.873,150.846Z" transform="translate(-657.808 -148.297)" fill="#fff"/>
          </g>
        </g>
        <g id="Group_716" data-name="Group 716" transform="translate(31.43 12.993)">
          <g id="Group_715" data-name="Group 715">
            <path id="Path_373" data-name="Path 373" d="M659.217,144.051a1.292,1.292,0,0,1-1.491-1.05,1.275,1.275,0,0,1,1.047-1.482,1.3,1.3,0,0,1,1.491,1.051A1.277,1.277,0,0,1,659.217,144.051Z" transform="translate(-657.706 -141.5)" fill="#fff"/>
          </g>
        </g>
        <g id="Group_718" data-name="Group 718" transform="translate(29.456 7.818)">
          <g id="Group_717" data-name="Group 717">
            <path id="Path_374" data-name="Path 374" d="M657.211,137.537a1.289,1.289,0,1,1,.472-1.751A1.29,1.29,0,0,1,657.211,137.537Z" transform="translate(-655.279 -135.136)" fill="#fff"/>
          </g>
        </g>
        <g id="Group_720" data-name="Group 720" transform="translate(25.83 3.621)">
          <g id="Group_719" data-name="Group 719">
            <path id="Path_375" data-name="Path 375" d="M653.093,132.091a1.29,1.29,0,1,1-.154-1.81A1.286,1.286,0,0,1,653.093,132.091Z" transform="translate(-650.819 -129.974)" fill="#fff"/>
          </g>
        </g>
        <g id="Group_722" data-name="Group 722" transform="translate(20.989 0.905)">
          <g id="Group_721" data-name="Group 721">
            <path id="Path_376" data-name="Path 376" d="M647.364,128.365a1.29,1.29,0,1,1-.767-1.651A1.28,1.28,0,0,1,647.364,128.365Z" transform="translate(-644.865 -126.633)" fill="#fff"/>
          </g>
        </g>
      </g>
    </g>
  </g>
</svg>
