<svg xmlns="http://www.w3.org/2000/svg" viewBox="0 0 487.14 504.796" width="100%">
  <defs>
    <clipPath id="about-us-cp">
      <path data-name="Path 413" d="M543.722 369.166c-24.575 21.209-39.255 51.629-39.255 84.093H380.155v-.008c0-32.357-14.5-62.8-39.031-83.892a154.731 154.731 0 01-54.043-119.949c1.17-81.008 66.937-149.045 147.868-152.783a155.193 155.193 0 01108.773 272.54zM505.106 463.7H379.515v19.511h125.591zm0 31.452H379.515a34.037 34.037 0 0034.037 34.037h57.518a34.037 34.037 0 0034.036-34.036z" transform="translate(-287.064 -96.457)" fill="#529ed6" opacity=".5" />
    </clipPath>
  </defs>
  <g data-name="Group 805" transform="translate(-147.975 -28.93)">
    <g data-name="Group 758">
      <path data-name="Path 388" d="M632.976 328.514q-.376-48.11.726-96.476.029-1.281.052-2.563c.513-28.657-1.373-57.66-9.858-82.11-4.628-13.333-11.217-25.313-20.451-35.146-22.948-24.434-46.466-35.788-73.926-34.346-27.588 1.448-54.9 1.522-80.915-12.392-38.15-20.4-91.207-13.085-130.082 10.75-33.751 20.694-58.161 61.554-73.471 100.369-16.28 41.268-28.451 96.99-17.149 143.406 5.128 21.061 17.162 41.887 35.41 50.615 15.489 7.407 33.46 5.682 50.376 8.006 29.648 4.074 56.258 20.791 79.014 42.655 34.87 33.5 59.74 92.261 104.062 108.545 16.854 6.193 36.4 4.984 55.7-3.444 36.48-15.933 70.514-60.208 79.915-108.127 5.662-28.891.821-61.145.597-89.742z" fill="#d7e6f6" />
    </g>
    <path data-name="Path 389" d="M338.515 172.664h-11.478a76.552 76.552 0 00-8.657-20.893l8.117-8.117a6.9 6.9 0 000-9.755l-16.713-16.713a6.9 6.9 0 00-9.754 0l-8.118 8.117a76.553 76.553 0 00-20.893-8.657v-11.477a6.9 6.9 0 00-6.9-6.9h-23.632a6.9 6.9 0 00-6.9 6.9v11.477a76.553 76.553 0 00-20.893 8.657l-8.118-8.117a6.9 6.9 0 00-9.754 0l-16.711 16.712a6.9 6.9 0 000 9.755l8.118 8.117a76.553 76.553 0 00-8.657 20.893h-11.478a6.9 6.9 0 00-6.9 6.9v23.636a6.9 6.9 0 006.9 6.9h11.478a76.559 76.559 0 008.657 20.893l-8.118 8.118a6.9 6.9 0 000 9.754l16.713 16.714a6.9 6.9 0 009.754 0l8.118-8.118a76.554 76.554 0 0020.893 8.657v11.478a6.9 6.9 0 006.9 6.9h23.636a6.9 6.9 0 006.9-6.9v-11.483a76.554 76.554 0 0020.893-8.657l8.118 8.118a6.9 6.9 0 009.754 0l16.708-16.715a6.9 6.9 0 000-9.754l-8.117-8.118a76.557 76.557 0 008.657-20.893h11.477a6.9 6.9 0 006.9-6.9v-23.635a6.9 6.9 0 00-6.9-6.894zm-86.211 65.339a46.624 46.624 0 1146.625-46.624 46.624 46.624 0 01-46.625 46.624z" fill="#529ed6" opacity=".75" />
    <g data-name="Group 759" fill="#d7e6f6">
      <path data-name="Path 390" d="M257.378 442.189h-4.511a30.1 30.1 0 00-3.4-8.21l3.19-3.191a2.71 2.71 0 000-3.833l-6.568-6.568a2.711 2.711 0 00-3.833 0l-3.191 3.191a30.076 30.076 0 00-8.21-3.4v-4.511a2.711 2.711 0 00-2.711-2.711h-9.291a2.711 2.711 0 00-2.711 2.711v4.511a30.076 30.076 0 00-8.21 3.4l-3.191-3.191a2.711 2.711 0 00-3.833 0l-6.568 6.568a2.71 2.71 0 000 3.833l3.19 3.191a30.1 30.1 0 00-3.4 8.21h-4.511a2.711 2.711 0 00-2.711 2.711v9.289a2.711 2.711 0 002.711 2.711h4.511a30.1 30.1 0 003.4 8.21l-3.19 3.191a2.71 2.71 0 000 3.833l6.568 6.568a2.71 2.71 0 003.833 0l3.191-3.19a30.105 30.105 0 008.21 3.4v4.51a2.711 2.711 0 002.711 2.711h9.289a2.711 2.711 0 002.711-2.711v-4.511a30.105 30.105 0 008.21-3.4l3.191 3.19a2.71 2.71 0 003.833 0l6.568-6.568a2.71 2.71 0 000-3.833l-3.19-3.191a30.1 30.1 0 003.4-8.21h4.511a2.711 2.711 0 002.711-2.711v-9.289a2.711 2.711 0 00-2.709-2.71zm-33.881 25.678a18.323 18.323 0 1118.326-18.323 18.323 18.323 0 01-18.326 18.323z" />
      <path data-name="Path 391" d="M213.549 396.167H210.8a18.36 18.36 0 00-2.074-5l1.944-1.944a1.652 1.652 0 000-2.336l-4-4a1.652 1.652 0 00-2.336 0l-1.944 1.944a18.371 18.371 0 00-5-2.074v-2.749a1.652 1.652 0 00-1.653-1.652h-5.661a1.653 1.653 0 00-1.652 1.652v2.749a18.354 18.354 0 00-5 2.074l-1.944-1.944a1.652 1.652 0 00-2.336 0l-4 4a1.651 1.651 0 000 2.336l1.944 1.944a18.3 18.3 0 00-2.074 5h-2.749a1.652 1.652 0 00-1.652 1.652v5.662a1.652 1.652 0 001.652 1.652h2.749a18.3 18.3 0 002.074 5l-1.944 1.944a1.651 1.651 0 000 2.336l4 4a1.653 1.653 0 002.336 0l1.944-1.944a18.326 18.326 0 005 2.074v2.749a1.653 1.653 0 001.652 1.652h5.661a1.652 1.652 0 001.653-1.652v-2.749a18.343 18.343 0 005-2.074l1.944 1.944a1.653 1.653 0 002.336 0l4-4a1.653 1.653 0 000-2.336l-1.944-1.944a18.36 18.36 0 002.074-5h2.749a1.653 1.653 0 001.653-1.652v-5.662a1.653 1.653 0 00-1.653-1.652zm-20.648 15.65a11.167 11.167 0 1111.167-11.168 11.168 11.168 0 01-11.163 11.169z" />
    </g>
    <ellipse data-name="Ellipse 47" cx="165.719" cy="19.37" rx="165.719" ry="19.37" transform="translate(147.975 487.802)" fill="#5f6771" opacity=".1" />
    <g data-name="Group 761">
      <path data-name="Path 392" d="M527.677 361.376c-24.575 21.209-39.255 51.629-39.255 84.093H364.11v-.008c0-32.357-14.5-62.8-39.031-83.892a154.731 154.731 0 01-54.043-119.949c1.17-81.008 66.937-149.045 147.868-152.783a155.193 155.193 0 01108.773 272.54zm-38.616 94.534H363.47v19.511h125.591zm0 31.452H363.47a34.037 34.037 0 0034.037 34.037h57.518a34.037 34.037 0 0034.036-34.036z" fill="#529ed6" opacity=".5" />
      <g data-name="Group 760" transform="translate(271.019 88.667)" clipPath="url(#about-us-cp)">
        <path data-name="Path 393" d="M208.979 266.804l7.24 10.065 4.556 1.6c1.694.6 3.937 3.284 3.324 4.972-3.14 8.653-13.416 32.053-16.019 35.426 0 0-3.471-2.89-2.209-5.833s3.1-25.1 3.1-25.1l-6.908-9.284z" fill="#d7e6f6" />
        <path data-name="Path 394" d="M225.871 282.674s-4.592-5.377-7.343-4.991a13.437 13.437 0 011.5 8.873c-1.363 4.2-4.746 17.889-12.327 14.911-1.3 4.695-3.017 14.106-2.289 18.591 0 0 2.429.562 3.83-.918 0 0 5.164-7.2 6.911-9.95l8.69-21.377 6.2-.214 1.1-2.492z" fill="#2b67af" />
        <path data-name="Path 395" d="M232.505 180.97s-68.776 12.619-77.741 17.257-1.386 15.523 10.72 32.047 38.689 54.813 38.689 54.813l10.426-11.915-29.849-52.993s71.667 1.453 78.728-6.892 6.827-19.579 3.209-32.886z" fill="#2b67af" />
        <path data-name="Path 396" d="M177.557 42.649c-6.809-.159-22.67 27.681 22.6 43.344 15.456 5.349 45-1.225 51.095-9.309 0 0-24.5-53.31-50.528-50.718-21.732 2.164-23.167 16.683-23.167 16.683z" fill="#2b67af" />
        <path data-name="Path 397" d="M123.886 159.632l10.268-6.6 13.511 2.094 46.107-9.549 1.559 13.512-46.012 1.349-4.929 1.11a6.078 6.078 0 01-4.229-.584l-6.155-3.332-9.045 5.208z" fill="#d7e6f6" />
        <path data-name="Path 398" d="M207.345 86.823c-10.6 1.369-5.378 17.156-9.974 56.108l-44.938 7.544 2.434 10.922s48.709-.594 56.138-1.821c8.153-20.181 14.253-75.066-3.66-72.753z" fill="#4a4f54" />
        <path data-name="Path 399" d="M227.057 84.694c-4.739 4.411-3.976 9.828-10.868 9.542-10.75 1.506-10.411-12.627-10.411-12.627-4.135 1.369-11.732 2.049-17.78-7.051-6.883-10.357-8.794-19.61-9.813-28.383-.654-5.628 1.723-9.265 11.223-11.894s16.539.223 24.311 10.337c6.361 8.3 7.453 27.8 7.453 27.8 1.676 3.576 5.885 12.276 5.885 12.276z" fill="#d7e6f6" />
        <path data-name="Path 400" d="M266.687 180.402s-22.425 1.844-34.182.569c-4.476-35.126-9.723-43.264-9.723-43.264-12.09-1.5-15.662-5.382-15.657-11.2-2.028-23.472-5.157-36.327-5.157-36.327a7.618 7.618 0 014.619-3.174s1.172 8.222 9.608 7.227c9.1-1.074 4.981-11.478 4.981-11.478 4.862-3.187 10.032-3.429 15.387-2.227s9.972 4.66 13.65 8.736c8.656 9.592 9.056 19.72 10.465 32.564s-.908 17.734-.2 33.375c.505 11.078 5.501 22.463 6.209 25.199z" fill="#5f6771" />
        <path data-name="Path 401" d="M160.55 176.468l5.978-9.842a4.912 4.912 0 013.192-1.931l12.143-1.89 50.7-8.548.545 13-47.705.77-4.487 2.837a5.858 5.858 0 01-4.4.765l-7.289-1.578-7.1 8.646z" fill="#d7e6f6" />
        <path data-name="Path 402" d="M228.954 88.344c2.053-4.671 4.058-7.925 9.667-7.723 15.7.567 4.908 23.869 15.953 69.23 1.119 4.6 1.754 16.89-11.258 17.622s-50.23 4.771-50.23 4.771l-5.088-14.974 45.64-6.315s-10-50.517-4.684-62.611z" fill="#79838b" />
        <path data-name="Path 403" d="M147.032 174.454h-81.49l-14.1-45.218a5.9 5.9 0 015.629-7.653h69.135a5.9 5.9 0 015.629 4.141z" fill="#dbdee0" />
        <path data-name="Rectangle 267" d="M65.542 174.454h123.222a1.827 1.827 0 011.827 1.827v1.089a1.827 1.827 0 01-1.827 1.827H69.557a4.015 4.015 0 01-4.015-4.014v-.729z" fill="#99a0a6" />
        <path data-name="Rectangle 268" d="M65.542 174.454h81.489v1.908a2.835 2.835 0 01-2.835 2.835H69.642a4.1 4.1 0 01-4.1-4.095v-.648z" fill="#b9bec3" />
        <path data-name="Path 404" d="M94.729 142.731a3.578 3.578 0 00-.526.065c-.027 2.674-1.693 4.847-3.838 5.163 0 .022-.005.042-.005.065 0 2.923 1.956 5.292 4.369 5.292s4.369-2.369 4.369-5.292-1.955-5.293-4.369-5.293z" fill="#fff" />
        <path data-name="Path 405" d="M183.078 300.32l.925 10.5 1.453 4.605c.54 1.713-.264 5.119-1.982 5.642-8.8 2.681-33.691 8.5-37.951 8.447 0 0 .229-4.512 3.34-5.268s21.937-12.588 21.937-12.588l-.081-8.89z" fill="#d7e6f6" />
        <path data-name="Path 406" d="M185.623 323.501s.416-8.582-.8-10.827a13.881 13.881 0 01-6.276 7.013c-4.176 1.428-17.158 6.939-19.325-.911-4.535 1.779-13.094 6.052-16.245 9.326 0 0 1.008 2.281 3.033 2.512 0 0 8.86-.192 12.107-.444l23.224-4.75 2.986 3.706 2.654-.616z" fill="#2b67af" />
        <path data-name="Path 407" d="M266.687 180.401c6.122 12.826 18.18 43.07-12.578 44.879-35.41 2.081-79.518 1.714-79.518 1.714l10.412 77.541-16.652 3.158s-4.477-27.137-10.74-51.275-20.159-47.92-1.8-54.556 110.876-21.461 110.876-21.461z" fill="#529ed6" />
        <path data-name="Path 408" d="M177.003 358.015H61.033c-3.864 0-7.232-2.606-8.792-6.8a12.9 12.9 0 011.7-12.287l60.771-78.9-53.95-70.047a4.285 4.285 0 01.2-5.332 2.844 2.844 0 014.494.242l53.562 69.543 53.561-69.543a2.845 2.845 0 014.494-.242 4.285 4.285 0 01.2 5.332l-53.95 70.047 60.771 78.9a12.9 12.9 0 011.7 12.286c-1.561 4.194-4.928 6.801-8.791 6.801zm-57.986-92.4l-60.384 78.4a4.362 4.362 0 00-.575 4.151 3.291 3.291 0 002.971 2.3h115.974a3.292 3.292 0 002.972-2.3 4.362 4.362 0 00-.575-4.151z" fill="#404042" />
        <path data-name="Path 409" d="M221.905 188.175H16.126a4.49 4.49 0 01-4.491-4.49 4.491 4.491 0 014.491-4.49h205.779a4.491 4.491 0 014.491 4.49 4.491 4.491 0 01-4.491 4.49z" fill="#fff" />
        <path data-name="Path 410" d="M281.638 346.104h-53.073l12.171-113.14 4.216.454-11.666 108.446h43.631L265.29 233.781l4.216-.454z" fill="#404042" />
        <path data-name="Path 411" d="M269.415 358.329h-53.08l14.242-131.107h24.6zm-48.353-4.241h43.625l-13.319-122.625h-16.985z" fill="#404042" />
        <path data-name="Rectangle 269" fill="#fff" d="M213.13 225.008h66.762v9.166H213.13z" />
        <path data-name="Path 412" d="M283.132 234.174h-6.393l6.393-34.559h6.393z" fill="#fff" />
      </g>
    </g>
    <g data-name="Group 762">
      <path data-name="Path 414" d="M498.634 173.91c-18.352 5.6-15.7-12.6-15.7-12.6 6.968 1.539 5.062-15.157-2.044-16.1-4.528-.6-3.522 6.245-3.522 6.245-16.147 9.755-36.085-7.651-34.241-20.095 1-6.721 2.655-11.131 10.439-15.832 9.55-5.766 18.991-3.6 27.549-.343 18.407 7 18.713 25.581 37.894 26.467 43.521 2.011 33.4 30.824 57.885 37.993 14.076 4.121 32.026 8.009 33.163 31.236 1.379 28.169-48.212 29.037-63.191 25.839-19.495-4.163-22.083-36.724-26.121-48.991-4.985-15.127-9.956-17.524-22.111-13.819z" fill="#529ed6" />
    </g>
    <g data-name="Group 766">
      <g data-name="Group 763">
        <path data-name="Path 415" d="M313.12 229.569c-9.49 0-13.241 3.921-13.241 12.357 0 .775-1.476.775-1.476 0 0-8.436-3-12.357-13.241-12.357-.765 0-.765-1.478 0-1.478 10.556 0 13.24-4.887 13.24-12.342 0-.776 1.476-.776 1.476 0 0 8.879 3.593 12.342 13.24 12.342.767 0 .767 1.478.002 1.478z" fill="#2b67af" />
      </g>
      <g data-name="Group 764">
        <path data-name="Path 416" d="M267.297 189.054c-13.228 0-18.458 5.465-18.458 17.224 0 1.081-2.056 1.081-2.056 0 0-11.759-4.184-17.224-18.458-17.224-1.067 0-1.067-2.061 0-2.061 14.713 0 18.457-6.812 18.457-17.2 0-1.081 2.056-1.081 2.056 0 0 12.377 5.009 17.2 18.457 17.2 1.068 0 1.068 2.061.002 2.061z" fill="#2b67af" />
      </g>
      <g data-name="Group 765">
        <path data-name="Path 417" d="M319.51 109.628c-23.707 0-33.079 9.794-33.079 30.868 0 1.937-3.685 1.937-3.685 0 0-21.074-7.5-30.868-33.079-30.868-1.913 0-1.912-3.693 0-3.693 26.369 0 33.078-12.208 33.078-30.832 0-1.937 3.685-1.937 3.685 0 0 22.182 8.976 30.832 33.078 30.832 1.913 0 1.918 3.693.002 3.693z" fill="#2b67af" />
      </g>
    </g>
    <g data-name="Group 767">
      <path data-name="Path 418" d="M304.708 512.939c0 3.32-15.049 6.011-33.613 6.011s-33.614-2.691-33.614-6.011 15.049-6.01 33.614-6.01 33.613 2.691 33.613 6.01z" fill="#5f6771" opacity=".1" />
    </g>
    <g data-name="Group 771">
      <g data-name="Group 768">
        <path data-name="Path 419" d="M302.504 514.599c-7.151 2.166-18.222 2.013-25.988 0-1.84-.478-3.539-1.343-3.91-3.208l-7.388-37.065h48.585l-7.392 37.066c-.369 1.864-2.088 2.656-3.907 3.207z" fill="#b9bec3" />
      </g>
      <g data-name="Group 769">
        <ellipse data-name="Ellipse 48" cx="24.217" cy="3.549" rx="24.217" ry="3.549" fill="#5f6771" transform="translate(265.368 470.778)" />
      </g>
      <g data-name="Group 770">
        <path data-name="Path 420" d="M312.79 479.404a83.185 83.185 0 01-16.521 10.579c-1.673.809-3.45 1.624-4.537 3.131s-1.127 3.95.432 4.962c.658.428 1.639.738 1.637 1.522a1.47 1.47 0 01-.448.915c-1.643 1.877-4.129 2.773-6.043 4.373s-3.148 4.681-1.461 6.519a7.343 7.343 0 002.745 1.925c1.374.523 1.676 2.831 2.215 2.831a38.08 38.08 0 0011.694-1.561 3.987 3.987 0 003.91-3.208z" fill="#dbdee0" />
      </g>
    </g>
    <g data-name="Group 772">
      <path data-name="Path 421" d="M281.122 289.513c-1.556-6.413-1.226-12.312-.153-18.822s3.942-12.648 10.43-11.44c6.209 1.156 8.445 8.71 8.8 14.158.495 7.557-1.934 14.817-2.759 22.251-1.249 11.261 1.332 23.57 4.284 34.509 2.368 8.774 5.324 15.869 7.625 26.116a53.847 53.847 0 01-.258 23.53c-2.082 8.559-15.689 39.181-18.332 70.586-1.256-40.165-9.233-51.424-11.886-65.126-1.1-5.656-2.295-11.261-1.785-17 1.3-14.629 5.355-28.86 7.792-43.344s-.077-20.256-3.758-35.418z" fill="#529ed6" />
    </g>
    <g data-name="Group 777">
      <g data-name="Group 773">
        <path data-name="Path 422" d="M289.312 475.177a.7.7 0 01-.074 0 .851.851 0 01-.775-.922c6.2-72.11 1.242-195.788 1.192-197.03a.851.851 0 01.816-.885.86.86 0 01.886.816c.05 1.242 5.012 125.029-1.2 197.245a.851.851 0 01-.845.776z" fill="#404042" />
      </g>
      <g data-name="Group 774">
        <path data-name="Path 423" d="M292.313 401.093h-.039a.852.852 0 01-.813-.889c.952-21.2 10.635-27.78 11.046-28.05a.852.852 0 01.936 1.423c-.094.063-9.371 6.455-10.28 26.7a.851.851 0 01-.85.816z" fill="#404042" />
      </g>
      <g data-name="Group 775">
        <path data-name="Path 424" d="M292.441 385.727a.852.852 0 01-.849-.8c-1.274-21.522-9.26-24.543-9.341-24.571a.856.856 0 01-.533-1.077.845.845 0 011.065-.541c.372.119 9.156 3.213 10.509 26.09a.851.851 0 01-.8.9z" fill="#404042" />
      </g>
      <g data-name="Group 776">
        <path data-name="Path 425" d="M292.364 359.276h-.082a.852.852 0 01-.766-.93c1.6-16.69 6.893-21.533 7.117-21.731a.852.852 0 011.131 1.274c-.073.066-5.029 4.76-6.552 20.621a.851.851 0 01-.848.766z" fill="#404042" />
      </g>
    </g>
    <g data-name="Group 778">
      <path data-name="Path 426" d="M236.28 348.719c-1.87-4.629-9.924-22.14-8.612-28.116 3.464 1.381 13.107 16.322 16.275 23.014 3.851 7.78 11.358 19.328 16.506 26.4 4.136 5.662 6.485 7.15 9.582 13.515 2.285 4.516 5.84 23.27 6.093 30.014.542 12.593-2.721 15.088.96 38.868-7.857-29.906-24.6-47.718-27.312-56.578-3.11-10.105-3.2-14.21-5.6-25.014-2.527-10.768-1.976-8.044-7.892-22.103z" fill="#529ed6" />
    </g>
    <g data-name="Group 783">
      <g data-name="Group 779">
        <path data-name="Path 427" d="M280.314 476.029a.851.851 0 01-.848-.784c-4.227-53.589-39.167-128.229-42.418-132.365a.853.853 0 01-.127-1.374.92.92 0 01.916-.15c1.436.584 11.746 22.4 20.788 46.161 8.993 23.633 20.2 58.015 22.539 87.593a.853.853 0 01-.782.916zm-42.275-133.238a.885.885 0 01-.127.091.847.847 0 00.127-.091zm0 0z" fill="#404042" />
      </g>
      <g data-name="Group 780">
        <path data-name="Path 428" d="M268.728 420.604a.852.852 0 01-.824-.638c-3.953-15.227.716-22.927 1.487-23.415a.851.851 0 011.112 1.261c-.225.314-4.781 6.965-.95 21.726a.851.851 0 01-.611 1.038.809.809 0 01-.214.028z" fill="#404042" />
      </g>
      <g data-name="Group 781">
        <path data-name="Path 429" d="M265.306 409.378a.852.852 0 01-.793-.538c-5.756-14.52-11.8-15.187-12.468-15.216a.879.879 0 01-.827-.705l.839-.148.052-.849c1.285.054 7.964 1.093 13.988 16.291a.85.85 0 01-.791 1.165z" fill="#404042" />
      </g>
      <g data-name="Group 782">
        <path data-name="Path 430" d="M258.678 390.31a.851.851 0 01-.823-.635c-3.207-12.151-1.261-17.674-.475-17.989a.852.852 0 011.064 1.2c-.121.278-1.977 4.855 1.058 16.355a.852.852 0 01-.606 1.041.888.888 0 01-.218.028z" fill="#404042" />
      </g>
    </g>
    <g data-name="Group 790">
      <g data-name="Group 784">
        <path data-name="Path 431" d="M333.974 386.762c2.423-2.814 13.314-12.591 18.161-12.116-.566 2.735-8.838 12.365-12.121 16.348-4.142 4.559-8.662 13.155-10.424 18.865-1.446 4.58-1.127 6.53-3.056 10.747-1.47 2.887-9.072 12.781-11.887 16.4-5.26 6.573-11.039 8.956-16.607 25.349 3.716-21.413 6.709-42.265 10.784-48.461 4.46-6.739 7.029-8.653 13.011-14.413 6.177-5.568 4.342-4.37 12.139-12.719z" fill="#2b67af" />
      </g>
      <g data-name="Group 789">
        <g data-name="Group 785">
          <path data-name="Path 432" d="M294.9 476.03a.865.865 0 01-.17-.017.853.853 0 01-.666-1c4.116-20.288 13.068-43.584 23.362-60.8a164.64 164.64 0 0119.632-27.229c.5-.568.969-1.108 1.138-1.325a.855.855 0 011.021-.511.868.868 0 01.6.583c.155.517.124.551-1.472 2.375a162.977 162.977 0 00-19.443 26.966c-10.211 17.074-19.083 40.164-23.163 60.276a.852.852 0 01-.839.682z" fill="#404042" />
        </g>
        <g data-name="Group 786">
          <path data-name="Path 433" d="M307.078 437.429a.852.852 0 01-.766-1.223c4.774-9.867 11.353-10.823 12.623-10.914l.088.847.852.03a.881.881 0 01-.817.823c-.679.048-6.753.741-11.211 9.957a.853.853 0 01-.769.48z" fill="#404042" />
        </g>
        <g data-name="Group 787">
          <path data-name="Path 434" d="M310.525 429.839a.84.84 0 01-.325-.065.851.851 0 01-.462-1.112c4.207-10.187 1.708-13.973 1.513-14.242a.852.852 0 01.924-1.4c.05.021 4.362 3.641-.863 16.292a.851.851 0 01-.787.527z" fill="#404042" />
        </g>
        <g data-name="Group 788">
          <path data-name="Path 435" d="M317.232 417.142a.852.852 0 01-.679-1.367c4.946-6.519 8.991-7.507 10.112-7.655l.16.837.835.165a.919.919 0 01-.772.687c-.681.088-4.314.847-8.977 6.995a.853.853 0 01-.679.338z" fill="#404042" />
        </g>
      </g>
    </g>
    <g data-name="Group 792" transform="translate(408.824 68.273)">
      <circle data-name="Ellipse 49" cx="19.763" cy="19.763" r="19.763" fill="#2b67af" />
      <g data-name="Group 791" fill="#fff">
        <path data-name="Path 436" d="M6.364 18.619l8.166-3.45.74 2.3-5.961 2.324 5.961 2.326-.74 2.3-8.162-3.449z" />
        <path data-name="Path 437" d="M18.626 28.987h-2.9l6.375-18.374h2.865z" />
        <path data-name="Path 438" d="M34.323 20.963l-8.163 3.449-.74-2.3 5.961-2.326-5.961-2.324.74-2.3 8.163 3.457z" />
      </g>
    </g>
    <circle data-name="Ellipse 50" cx="23.491" cy="23.491" r="23.491" transform="translate(369.551 28.93)" fill="#2b67af" />
    <g data-name="Group 793" fill="#fff">
      <path data-name="Path 439" d="M380.89 48.232q.159.547.352 1.234t.413 1.421q.22.734.447 1.467t.439 1.358q.175-.681.356-1.481t.341-1.654q.161-.853.315-1.7t.288-1.634h2.161q-.468 2.322-1.08 4.709t-1.322 4.536h-1.9q-.467-1.281-.906-2.688t-.865-2.821q-.427 1.415-.855 2.821t-.9 2.688h-1.9q-.711-2.147-1.32-4.536t-1.078-4.709h2.254q.134.787.3 1.634t.335 1.7q.174.853.355 1.654t.368 1.481q.242-.654.468-1.388t.441-1.467q.215-.734.4-1.415t.327-1.214z" />
      <path data-name="Path 440" d="M393.895 48.232q.159.547.352 1.234t.413 1.421q.22.734.447 1.467t.438 1.358q.175-.681.356-1.481t.341-1.654q.161-.853.316-1.7t.287-1.632h2.161q-.468 2.322-1.079 4.709t-1.323 4.536h-1.9q-.467-1.281-.9-2.688t-.866-2.821q-.427 1.415-.855 2.821t-.894 2.688h-1.9q-.711-2.147-1.32-4.536t-1.078-4.709h2.254c.09.525.188 1.07.3 1.634s.219 1.132.335 1.7.234 1.121.355 1.654.244 1.027.368 1.481q.242-.654.469-1.388t.441-1.467q.214-.734.395-1.415t.327-1.214z" />
      <path data-name="Path 441" d="M406.901 48.232q.159.547.353 1.234t.412 1.421q.22.734.447 1.467t.436 1.358q.175-.681.357-1.481t.341-1.654q.161-.853.316-1.7t.288-1.634h2.161q-.468 2.322-1.079 4.709t-1.322 4.536h-1.9q-.466-1.281-.9-2.688t-.866-2.821q-.427 1.415-.855 2.821t-.894 2.688h-1.9q-.711-2.147-1.32-4.536t-1.078-4.709h2.254c.09.525.188 1.07.3 1.634s.219 1.132.335 1.7.234 1.121.355 1.654.244 1.027.368 1.481q.242-.654.469-1.388t.441-1.467q.214-.734.395-1.415t.327-1.214z" />
    </g>
    <g data-name="Group 794" transform="translate(349.31 102.098)" fill="#d7e6f6">
      <circle data-name="Ellipse 51" cx="13.882" cy="13.882" r="13.882" transform="rotate(-40.914 28.924 -3.1113)" />
      <circle data-name="Ellipse 52" cx="6.941" cy="6.941" r="6.941" transform="translate(0 46.752)" />
      <path data-name="Path 442" d="M16.148 89.926a3.208 3.208 0 10-3.209 3.209 3.208 3.208 0 003.209-3.209z" />
    </g>
    <g data-name="Group 796" transform="translate(389.43 107.799)">
      <circle data-name="Ellipse 53" cx="16.678" cy="16.678" r="16.678" fill="#2b67af" />
      <g data-name="Group 795" fill="#fff">
        <path data-name="Path 443" d="M9.216 12.944h1.455v6.463H9.216v-2.742H6.773v2.742H5.319v-6.463h1.454v2.472h2.443z" />
        <path data-name="Path 444" d="M16.957 12.944v1.24h-1.95v5.223h-1.455v-5.223h-1.949v-1.24z" />
        <path data-name="Path 445" d="M19.513 12.944q.169.308.387.76t.459.979q.237.527.471 1.078t.44 1.035q.206-.486.44-1.035t.471-1.078q.239-.527.459-.979t.387-.76h1.324q.094.642.173 1.441t.14 1.66q.06.863.111 1.73t.088 1.632h-1.417q-.029-.942-.075-2.052t-.139-2.238l-.375.868q-.206.475-.407.951t-.388.909q-.187.434-.318.741h-1.016q-.131-.308-.318-.741t-.388-.909q-.2-.476-.407-.951c-.137-.318-.262-.606-.374-.868q-.093 1.129-.14 2.238t-.074 2.052h-1.418q.037-.764.088-1.632t.112-1.73q.061-.863.14-1.66t.173-1.441z" />
        <path data-name="Path 446" d="M30.48 18.157v1.25h-4.318v-6.463h1.455v5.213z" />
      </g>
    </g>
    <g data-name="Group 798" transform="translate(357.414 122.278)">
      <circle data-name="Ellipse 54" cx="13.3" cy="13.3" r="13.3" transform="rotate(-14.07 26.2547 3.228)" fill="#2b67af" />
      <g data-name="Group 797" fill="#fff">
        <path data-name="Path 447" d="M11.174 19.576a3.261 3.261 0 01-2.491-.909 3.626 3.626 0 01-.856-2.584 3.991 3.991 0 01.261-1.485 3.209 3.209 0 01.717-1.1 3.02 3.02 0 011.084-.682 3.93 3.93 0 011.364-.232 4.4 4.4 0 01.774.063 5.229 5.229 0 01.609.145 3.062 3.062 0 01.435.169c.117.058.2.1.251.136l-.434 1.219a3.66 3.66 0 00-.721-.28 3.426 3.426 0 00-.934-.117 2.052 2.052 0 00-.682.117 1.525 1.525 0 00-.59.372 1.849 1.849 0 00-.41.663 2.751 2.751 0 00-.156.986 3.539 3.539 0 00.1.866 1.82 1.82 0 00.329.692 1.58 1.58 0 00.6.46 2.108 2.108 0 00.89.169 4.071 4.071 0 00.59-.038 4.589 4.589 0 00.464-.092 2.368 2.368 0 00.357-.121c.1-.045.2-.088.281-.126l.416 1.209a3.551 3.551 0 01-.9.349 5.274 5.274 0 01-1.348.151z" />
        <path data-name="Path 448" d="M16.38 18.289a2.186 2.186 0 00.527-.053.987.987 0 00.334-.145.488.488 0 00.173-.218.787.787 0 00.049-.28.647.647 0 00-.31-.547 4.409 4.409 0 00-1.064-.47 7.8776 7.8776 0 01-.658-.266 2.432 2.432 0 01-.59-.377 1.8 1.8 0 01-.425-.552 1.724 1.724 0 01-.165-.788 1.956 1.956 0 01.173-.837 1.8 1.8 0 01.495-.634 2.269 2.269 0 01.774-.4 3.489 3.489 0 011.025-.14 4.188 4.188 0 011.17.145 4.241 4.241 0 01.813.319l-.435 1.19a4.19 4.19 0 00-.625-.257 2.724 2.724 0 00-.827-.111 1.516 1.516 0 00-.779.15.505.505 0 00-.237.46.524.524 0 00.088.31.842.842 0 00.246.227 2.2 2.2 0 00.368.184c.138.055.291.111.459.169q.523.194.91.382a2.417 2.417 0 01.642.441 1.587 1.587 0 01.383.59 2.365 2.365 0 01.126.822 1.744 1.744 0 01-.658 1.456 3.17 3.17 0 01-1.983.518 5.5 5.5 0 01-.8-.054 5.219 5.219 0 01-.633-.13 3.554 3.554 0 01-.474-.165q-.2-.088-.334-.165l.426-1.2a3.746 3.746 0 00.74.295 3.818 3.818 0 001.076.131z" />
        <path data-name="Path 449" d="M22.011 18.289a2.18 2.18 0 00.527-.053.986.986 0 00.334-.145.488.488 0 00.173-.218.768.768 0 00.049-.28.647.647 0 00-.31-.547 4.393 4.393 0 00-1.064-.47 7.8776 7.8776 0 01-.658-.266 2.43 2.43 0 01-.59-.377 1.8 1.8 0 01-.426-.552 1.725 1.725 0 01-.165-.788 1.957 1.957 0 01.174-.837 1.79 1.79 0 01.494-.634 2.269 2.269 0 01.774-.4 3.493 3.493 0 011.025-.14 4.094 4.094 0 011.983.464l-.435 1.19a4.188 4.188 0 00-.625-.257 2.722 2.722 0 00-.826-.111 1.52 1.52 0 00-.779.15.506.506 0 00-.237.46.524.524 0 00.088.31.842.842 0 00.246.227 2.2 2.2 0 00.368.184c.138.055.291.111.46.169q.521.194.909.382a2.435 2.435 0 01.643.441 1.585 1.585 0 01.382.59 2.365 2.365 0 01.126.822 1.746 1.746 0 01-.657 1.456 3.171 3.171 0 01-1.984.518 5.508 5.508 0 01-.8-.054 5.22 5.22 0 01-.633-.13 3.554 3.554 0 01-.474-.165q-.2-.088-.334-.165l.426-1.2a3.769 3.769 0 00.74.295 3.818 3.818 0 001.076.131z" />
      </g>
    </g>
    <g data-name="Group 800" transform="translate(372.27 146.663)">
      <circle data-name="Ellipse 55" cx="11.755" cy="11.755" r="11.755" fill="#2b67af" />
      <g data-name="Group 799" fill="#fff">
        <path data-name="Path 450" d="M5.894 8.669a3.707 3.707 0 012.035.466 1.691 1.691 0 01.709 1.527 1.711 1.711 0 01-.717 1.543 3.718 3.718 0 01-2.053.475H5.45v1.984H4.116v-5.84a7.478 7.478 0 01.924-.12q.486-.035.854-.035zm.085 1.138c-.1 0-.192 0-.287.009s-.175.011-.243.017v1.71h.418a2.27 2.27 0 001.044-.188.722.722 0 00.351-.7.849.849 0 00-.09-.41.685.685 0 00-.257-.261 1.179 1.179 0 00-.407-.137 3.461 3.461 0 00-.529-.04z" />
        <path data-name="Path 451" d="M13.198 8.738h1.328v5.926h-1.333V12.15h-2.237v2.514h-1.33V8.738h1.333v2.266h2.242z" />
        <path data-name="Path 452" d="M17.677 8.669a3.71 3.71 0 012.036.466 1.693 1.693 0 01.71 1.527 1.712 1.712 0 01-.718 1.543 3.715 3.715 0 01-2.052.475h-.419v1.984H15.9v-5.84a7.478 7.478 0 01.924-.12c.322-.023.608-.035.853-.035zm.086 1.138c-.1 0-.193 0-.288.009s-.175.011-.243.017v1.71h.419a2.266 2.266 0 001.043-.188.722.722 0 00.351-.7.839.839 0 00-.09-.41.685.685 0 00-.257-.261 1.179 1.179 0 00-.407-.137 3.448 3.448 0 00-.528-.04z" />
      </g>
    </g>
    <g data-name="Group 802" transform="translate(354.771 169.542)">
      <circle data-name="Ellipse 56" cx="8.506" cy="8.506" r="8.506" transform="rotate(-11.111 16.8506 1.639)" fill="#2b67af" />
      <g data-name="Group 801" fill="#fff">
        <path data-name="Path 453" d="M8.804 10.927a3.788 3.788 0 01-.111.931 1.788 1.788 0 01-1.135 1.276 3.214 3.214 0 01-1.187.188 3.592 3.592 0 01-1.135-.159 3.229 3.229 0 01-.785-.373l.5-1.173a4.3 4.3 0 00.6.29 1.884 1.884 0 00.7.127 1.021 1.021 0 00.794-.272 1.362 1.362 0 00.243-.912V6.467H8.8z" />
        <path data-name="Path 454" d="M12.091 12.033a2.143 2.143 0 00.529-.054.978.978 0 00.334-.145.485.485 0 00.174-.218.8.8 0 00.049-.281.651.651 0 00-.31-.548 4.441 4.441 0 00-1.067-.47 8.0505 8.0505 0 01-.659-.267 2.414 2.414 0 01-.591-.378 1.811 1.811 0 01-.426-.553 1.723 1.723 0 01-.165-.79 1.968 1.968 0 01.174-.84 1.794 1.794 0 01.495-.634 2.248 2.248 0 01.776-.4 3.481 3.481 0 011.028-.141 4.1 4.1 0 011.988.465l-.442 1.191a4.209 4.209 0 00-.625-.257 2.713 2.713 0 00-.83-.112 1.526 1.526 0 00-.779.15.507.507 0 00-.238.461.525.525 0 00.088.311.823.823 0 00.247.227 2.13 2.13 0 00.368.185q.208.082.462.17.523.194.911.382a2.435 2.435 0 01.644.441 1.593 1.593 0 01.383.592 2.375 2.375 0 01.126.824 1.751 1.751 0 01-.659 1.46 3.182 3.182 0 01-1.988.518 5.521 5.521 0 01-.8-.053 5.293 5.293 0 01-.636-.131 3.622 3.622 0 01-.475-.165q-.2-.088-.334-.165l.427-1.2a3.76 3.76 0 00.742.3 3.859 3.859 0 001.079.125z" />
      </g>
    </g>
    <g data-name="Group 804">
      <path data-name="Path 455" d="M377.998 198.745a5.726 5.726 0 10-5.726 5.725 5.726 5.726 0 005.726-5.725z" fill="#2b67af" />
      <g data-name="Group 803" fill="#fff">
        <path data-name="Path 456" d="M369.776 198.449a.5.5 0 00.426-.17.716.716 0 00.13-.444v-.985a1.569 1.569 0 01.072-.5.841.841 0 01.238-.369 1.1 1.1 0 01.444-.228 2.571 2.571 0 01.688-.079h.13v.777h-.162a.478.478 0 00-.4.131.653.653 0 00-.1.4v.868a1.6 1.6 0 01-.09.574.407.407 0 000 .81 1.605 1.605 0 01.09.574v.868a.654.654 0 00.1.4.478.478 0 00.4.131h.162v.777h-.13a2.535 2.535 0 01-.688-.079 1.1 1.1 0 01-.444-.228.841.841 0 01-.238-.369 1.569 1.569 0 01-.072-.5v-.985a.716.716 0 00-.13-.444.506.506 0 00-.426-.169z" />
        <path data-name="Path 457" d="M374.754 199.22a.5.5 0 00-.425.169.71.71 0 00-.131.444v.985a1.569 1.569 0 01-.072.5.826.826 0 01-.238.369 1.093 1.093 0 01-.443.228 2.542 2.542 0 01-.689.079h-.13v-.777h.163a.481.481 0 00.4-.131.66.66 0 00.1-.4v-.868a1.585 1.585 0 01.091-.574.407.407 0 000-.81 1.582 1.582 0 01-.091-.574v-.868a.66.66 0 00-.1-.4.481.481 0 00-.4-.131h-.163v-.777h.13a2.578 2.578 0 01.689.079 1.092 1.092 0 01.443.228.826.826 0 01.238.369 1.569 1.569 0 01.072.5v.985a.71.71 0 00.131.444.5.5 0 00.425.17z" />
      </g>
    </g>
  </g>
</svg>
